<?xml version="1.0" encoding="utf-8" standalone="no"?>
<!DOCTYPE svg PUBLIC "-//W3C//DTD SVG 1.1//EN"
  "http://www.w3.org/Graphics/SVG/1.1/DTD/svg11.dtd">
<!-- Created with matplotlib (https://matplotlib.org/) -->
<svg height="720pt" version="1.1" viewBox="0 0 720 720" width="720pt" xmlns="http://www.w3.org/2000/svg" xmlns:xlink="http://www.w3.org/1999/xlink">
 <metadata>
  <rdf:RDF xmlns:cc="http://creativecommons.org/ns#" xmlns:dc="http://purl.org/dc/elements/1.1/" xmlns:rdf="http://www.w3.org/1999/02/22-rdf-syntax-ns#">
   <cc:Work>
    <dc:type rdf:resource="http://purl.org/dc/dcmitype/StillImage"/>
    <dc:date>2022-07-07T12:31:18.443453</dc:date>
    <dc:format>image/svg+xml</dc:format>
    <dc:creator>
     <cc:Agent>
      <dc:title>Matplotlib v3.3.1, https://matplotlib.org/</dc:title>
     </cc:Agent>
    </dc:creator>
   </cc:Work>
  </rdf:RDF>
 </metadata>
 <defs>
  <style type="text/css">*{stroke-linecap:butt;stroke-linejoin:round;}</style>
 </defs>
 <g id="figure_1">
  <g id="patch_1">
   <path d="M 0 720 
L 720 720 
L 720 0 
L 0 0 
z
" style="fill:#ffffff;"/>
  </g>
  <g id="axes_1">
   <g id="patch_2">
    <path d="M 90 640.8 
L 648 640.8 
L 648 86.4 
L 90 86.4 
z
" style="fill:#ffffff;"/>
   </g>
   <g id="PathCollection_1">
    <path clip-path="url(#p57c6446f8a)" d="M 504.51933 604.512953 
L 506.610981 602.421303 
L 508.702631 604.512953 
L 510.794281 602.421303 
L 508.702631 600.329653 
L 510.794281 598.238003 
L 508.702631 596.146353 
L 506.610981 598.238003 
L 504.51933 596.146353 
L 502.42768 598.238003 
L 504.51933 600.329653 
L 502.42768 602.421303 
z
" style="fill:none;stroke:#a52a2a;"/>
   </g>
   <g id="PathCollection_2">
    <path clip-path="url(#p57c6446f8a)" d="M 534.491644 623.955593 
L 538.674944 615.588993 
L 530.308344 615.588993 
z
" style="fill:none;stroke:#ff0000;"/>
   </g>
   <g id="PathCollection_3">
    <path clip-path="url(#p57c6446f8a)" d="M 414.339006 566.291235 
L 418.522306 557.924635 
L 410.155706 557.924635 
z
" style="fill:none;stroke:#0000ff;"/>
   </g>
   <g id="PathCollection_4">
    <path clip-path="url(#p57c6446f8a)" d="M 385.255046 523.98247 
L 381.071746 532.34907 
L 389.438346 532.34907 
z
" style="fill:none;stroke:#ffa500;"/>
   </g>
   <g id="PathCollection_5">
    <defs>
     <path d="M 0 -4.873397 
L -4.873397 4.873397 
L 4.873397 4.873397 
z
" id="m5e3e0560cf" style="stroke:#ffa500;"/>
    </defs>
    <g clip-path="url(#p57c6446f8a)">
     <use style="fill:#ffa500;stroke:#ffa500;" x="372.294442" xlink:href="#m5e3e0560cf" y="523.020316"/>
    </g>
   </g>
   <g id="PathCollection_6">
    <path clip-path="url(#p57c6446f8a)" d="M 470.046819 611.220314 
L 465.863518 619.586915 
L 474.230119 619.586915 
z
" style="fill:none;stroke:#008000;"/>
   </g>
   <g id="PathCollection_7">
    <defs>
     <path d="M -0 4.873397 
L 4.873397 -4.873397 
L -4.873397 -4.873397 
z
" id="me4a69d188d" style="stroke:#0000ff;"/>
    </defs>
    <g clip-path="url(#p57c6446f8a)">
     <use style="fill:#0000ff;stroke:#0000ff;" x="499.893174" xlink:href="#me4a69d188d" y="620.822866"/>
    </g>
   </g>
   <g id="PathCollection_8">
    <defs>
     <path d="M 0 -4.873397 
L -4.873397 4.873397 
L 4.873397 4.873397 
z
" id="mdd0008d7e7" style="stroke:#008000;"/>
    </defs>
    <g clip-path="url(#p57c6446f8a)">
     <use style="fill:#008000;stroke:#008000;" x="303.072035" xlink:href="#mdd0008d7e7" y="472.201154"/>
    </g>
   </g>
   <g id="PathCollection_9">
    <path clip-path="url(#p57c6446f8a)" d="M 539.81596 616.926338 
L 543.99926 608.559738 
L 535.632659 608.559738 
z
" style="fill:none;stroke:#0000ff;"/>
   </g>
   <g id="PathCollection_10">
    <defs>
     <path d="M 0 4.873397 
C 1.29244 4.873397 2.532119 4.359905 3.446012 3.446012 
C 4.359905 2.532119 4.873397 1.29244 4.873397 0 
C 4.873397 -1.29244 4.359905 -2.532119 3.446012 -3.446012 
C 2.532119 -4.359905 1.29244 -4.873397 0 -4.873397 
C -1.29244 -4.873397 -2.532119 -4.359905 -3.446012 -3.446012 
C -4.359905 -2.532119 -4.873397 -1.29244 -4.873397 0 
C -4.873397 1.29244 -4.359905 2.532119 -3.446012 3.446012 
C -2.532119 4.359905 -1.29244 4.873397 0 4.873397 
z
" id="m6ceb36a6c6" style="stroke:#ff00ff;"/>
    </defs>
    <g clip-path="url(#p57c6446f8a)">
     <use style="fill:#ff00ff;stroke:#ff00ff;" x="465.322098" xlink:href="#m6ceb36a6c6" y="588.286528"/>
    </g>
   </g>
   <g id="PathCollection_11">
    <defs>
     <path d="M -0 4.873397 
L 4.873397 -4.873397 
L -4.873397 -4.873397 
z
" id="m61e5b11c33" style="stroke:#ff0000;"/>
    </defs>
    <g clip-path="url(#p57c6446f8a)">
     <use style="fill:#ff0000;stroke:#ff0000;" x="469.249961" xlink:href="#m61e5b11c33" y="598.202533"/>
    </g>
   </g>
   <g id="PathCollection_12">
    <defs>
     <path d="M -0 6.892024 
L 6.892024 0 
L 0 -6.892024 
L -6.892024 -0 
z
" id="m8d98051e94" style="stroke:#000000;"/>
    </defs>
    <g clip-path="url(#p57c6446f8a)">
     <use style="stroke:#000000;" x="374.093916" xlink:href="#m8d98051e94" y="530.873545"/>
    </g>
   </g>
   <g id="PathCollection_13">
    <path clip-path="url(#p57c6446f8a)" d="M 448.222151 566.431484 
L 444.038851 574.798084 
L 452.405452 574.798084 
z
" style="fill:none;stroke:#008000;"/>
   </g>
   <g id="PathCollection_14">
    <path clip-path="url(#p57c6446f8a)" d="M 480.271149 603.025205 
L 484.454449 594.658605 
L 476.087849 594.658605 
z
" style="fill:none;stroke:#ff0000;"/>
   </g>
   <g id="PathCollection_15">
    <path clip-path="url(#p57c6446f8a)" d="M 406.519079 531.505682 
L 402.335779 539.872283 
L 410.702379 539.872283 
z
" style="fill:none;stroke:#ffa500;"/>
   </g>
   <g id="matplotlib.axis_1">
    <g id="xtick_1">
     <g id="line2d_1">
      <defs>
       <path d="M 0 0 
L 0 3.5 
" id="m5aede88dbf" style="stroke:#000000;stroke-width:0.8;"/>
      </defs>
      <g>
       <use style="stroke:#000000;stroke-width:0.8;" x="90" xlink:href="#m5aede88dbf" y="640.8"/>
      </g>
     </g>
     <g id="text_1">
      <!-- 0 -->
      <g transform="translate(86.81875 655.398438)scale(0.1 -0.1)">
       <defs>
        <path d="M 31.78125 3.421875 
Q 39.265625 3.421875 42.96875 11.625 
Q 46.6875 19.828125 46.6875 36.375 
Q 46.6875 52.984375 42.96875 61.1875 
Q 39.265625 69.390625 31.78125 69.390625 
Q 24.3125 69.390625 20.59375 61.1875 
Q 16.890625 52.984375 16.890625 36.375 
Q 16.890625 19.828125 20.59375 11.625 
Q 24.3125 3.421875 31.78125 3.421875 
z
M 31.78125 -1.421875 
Q 19.921875 -1.421875 13.25 8.53125 
Q 6.59375 18.5 6.59375 36.375 
Q 6.59375 54.296875 13.25 64.25 
Q 19.921875 74.21875 31.78125 74.21875 
Q 43.703125 74.21875 50.34375 64.25 
Q 56.984375 54.296875 56.984375 36.375 
Q 56.984375 18.5 50.34375 8.53125 
Q 43.703125 -1.421875 31.78125 -1.421875 
z
" id="DejaVuSerif-48"/>
       </defs>
       <use xlink:href="#DejaVuSerif-48"/>
      </g>
     </g>
    </g>
    <g id="xtick_2">
     <g id="line2d_2">
      <g>
       <use style="stroke:#000000;stroke-width:0.8;" x="202.712076" xlink:href="#m5aede88dbf" y="640.8"/>
      </g>
     </g>
     <g id="text_2">
      <!-- 1 -->
      <g transform="translate(199.530826 655.398438)scale(0.1 -0.1)">
       <defs>
        <path d="M 14.203125 0 
L 14.203125 5.171875 
L 26.90625 5.171875 
L 26.90625 65.828125 
L 12.203125 56.296875 
L 12.203125 62.703125 
L 29.984375 74.21875 
L 36.71875 74.21875 
L 36.71875 5.171875 
L 49.421875 5.171875 
L 49.421875 0 
z
" id="DejaVuSerif-49"/>
       </defs>
       <use xlink:href="#DejaVuSerif-49"/>
      </g>
     </g>
    </g>
    <g id="xtick_3">
     <g id="line2d_3">
      <g>
       <use style="stroke:#000000;stroke-width:0.8;" x="315.424152" xlink:href="#m5aede88dbf" y="640.8"/>
      </g>
     </g>
     <g id="text_3">
      <!-- 2 -->
      <g transform="translate(312.242902 655.398438)scale(0.1 -0.1)">
       <defs>
        <path d="M 12.796875 55.515625 
L 7.328125 55.515625 
L 7.328125 68.5 
Q 12.546875 71.296875 17.84375 72.75 
Q 23.140625 74.21875 28.21875 74.21875 
Q 39.59375 74.21875 46.1875 68.703125 
Q 52.78125 63.1875 52.78125 53.71875 
Q 52.78125 43.015625 37.84375 28.125 
Q 36.671875 27 36.078125 26.421875 
L 17.671875 8.015625 
L 48.09375 8.015625 
L 48.09375 17 
L 53.8125 17 
L 53.8125 0 
L 6.78125 0 
L 6.78125 5.328125 
L 28.90625 27.390625 
Q 36.234375 34.71875 39.359375 40.84375 
Q 42.484375 46.96875 42.484375 53.71875 
Q 42.484375 61.078125 38.640625 65.234375 
Q 34.8125 69.390625 28.078125 69.390625 
Q 21.09375 69.390625 17.28125 65.921875 
Q 13.484375 62.453125 12.796875 55.515625 
z
" id="DejaVuSerif-50"/>
       </defs>
       <use xlink:href="#DejaVuSerif-50"/>
      </g>
     </g>
    </g>
    <g id="xtick_4">
     <g id="line2d_4">
      <g>
       <use style="stroke:#000000;stroke-width:0.8;" x="428.136229" xlink:href="#m5aede88dbf" y="640.8"/>
      </g>
     </g>
     <g id="text_4">
      <!-- 3 -->
      <g transform="translate(424.954979 655.398438)scale(0.1 -0.1)">
       <defs>
        <path d="M 9.71875 69.828125 
Q 15.4375 71.96875 20.671875 73.09375 
Q 25.921875 74.21875 30.515625 74.21875 
Q 41.21875 74.21875 47.21875 69.59375 
Q 53.21875 64.984375 53.21875 56.78125 
Q 53.21875 50.203125 49.0625 45.78125 
Q 44.921875 41.359375 37.3125 39.796875 
Q 46.296875 38.53125 51.25 33.28125 
Q 56.203125 28.03125 56.203125 19.671875 
Q 56.203125 9.46875 49.34375 4.015625 
Q 42.484375 -1.421875 29.59375 -1.421875 
Q 23.875 -1.421875 18.421875 -0.1875 
Q 12.984375 1.03125 7.625 3.515625 
L 7.625 17.671875 
L 13.09375 17.671875 
Q 13.578125 10.640625 17.828125 7.03125 
Q 22.078125 3.421875 29.78125 3.421875 
Q 37.25 3.421875 41.578125 7.734375 
Q 45.90625 12.0625 45.90625 19.578125 
Q 45.90625 28.171875 41.453125 32.59375 
Q 37.015625 37.015625 28.421875 37.015625 
L 23.78125 37.015625 
L 23.78125 42 
L 26.21875 42 
Q 34.765625 42 39.03125 45.53125 
Q 43.3125 49.078125 43.3125 56.203125 
Q 43.3125 62.59375 39.796875 65.984375 
Q 36.28125 69.390625 29.6875 69.390625 
Q 23.09375 69.390625 19.453125 66.265625 
Q 15.828125 63.140625 15.1875 56.984375 
L 9.71875 56.984375 
z
" id="DejaVuSerif-51"/>
       </defs>
       <use xlink:href="#DejaVuSerif-51"/>
      </g>
     </g>
    </g>
    <g id="xtick_5">
     <g id="line2d_5">
      <g>
       <use style="stroke:#000000;stroke-width:0.8;" x="540.848305" xlink:href="#m5aede88dbf" y="640.8"/>
      </g>
     </g>
     <g id="text_5">
      <!-- 4 -->
      <g transform="translate(537.667055 655.398438)scale(0.1 -0.1)">
       <defs>
        <path d="M 34.90625 24.703125 
L 34.90625 63.484375 
L 10.015625 24.703125 
z
M 56.390625 0 
L 23.1875 0 
L 23.1875 5.171875 
L 34.90625 5.171875 
L 34.90625 19.484375 
L 3.078125 19.484375 
L 3.078125 24.8125 
L 35.015625 74.21875 
L 44.671875 74.21875 
L 44.671875 24.703125 
L 58.59375 24.703125 
L 58.59375 19.484375 
L 44.671875 19.484375 
L 44.671875 5.171875 
L 56.390625 5.171875 
z
" id="DejaVuSerif-52"/>
       </defs>
       <use xlink:href="#DejaVuSerif-52"/>
      </g>
     </g>
    </g>
    <g id="text_6">
     <!-- Split -->
     <g transform="translate(357.166406 669.076563)scale(0.1 -0.1)">
      <defs>
       <path d="M 9.28125 3.515625 
L 9.28125 20.125 
L 14.890625 20.0625 
Q 15.140625 11.765625 19.703125 7.78125 
Q 24.265625 3.8125 33.59375 3.8125 
Q 42.28125 3.8125 46.84375 7.25 
Q 51.421875 10.6875 51.421875 17.28125 
Q 51.421875 22.5625 48.65625 25.390625 
Q 45.90625 28.21875 37.015625 30.90625 
L 27.390625 33.796875 
Q 16.9375 36.96875 12.671875 41.703125 
Q 8.40625 46.4375 8.40625 54.6875 
Q 8.40625 63.96875 14.984375 69.09375 
Q 21.578125 74.21875 33.5 74.21875 
Q 38.578125 74.21875 44.625 73.109375 
Q 50.6875 72.015625 57.515625 69.921875 
L 57.515625 54.390625 
L 52 54.390625 
Q 51.171875 62.109375 46.84375 65.546875 
Q 42.53125 69 33.6875 69 
Q 25.984375 69 21.953125 65.84375 
Q 17.921875 62.703125 17.921875 56.6875 
Q 17.921875 51.46875 20.9375 48.484375 
Q 23.96875 45.515625 33.796875 42.578125 
L 42.828125 39.890625 
Q 52.734375 36.921875 56.953125 32.296875 
Q 61.1875 27.6875 61.1875 19.921875 
Q 61.1875 9.328125 54.390625 3.953125 
Q 47.609375 -1.421875 34.1875 -1.421875 
Q 28.171875 -1.421875 21.9375 -0.1875 
Q 15.71875 1.03125 9.28125 3.515625 
z
" id="DejaVuSerif-83"/>
       <path d="M 20.515625 28.515625 
L 20.515625 23.390625 
Q 20.515625 14.015625 24.09375 9.109375 
Q 27.6875 4.203125 34.515625 4.203125 
Q 41.40625 4.203125 44.9375 9.71875 
Q 48.484375 15.234375 48.484375 25.984375 
Q 48.484375 36.765625 44.9375 42.234375 
Q 41.40625 47.703125 34.515625 47.703125 
Q 27.6875 47.703125 24.09375 42.765625 
Q 20.515625 37.84375 20.515625 28.515625 
z
M 11.53125 46.6875 
L 2.875 46.6875 
L 2.875 51.90625 
L 20.515625 51.90625 
L 20.515625 43.796875 
Q 23.140625 48.6875 27.21875 51 
Q 31.296875 53.328125 37.3125 53.328125 
Q 46.875 53.328125 52.921875 45.75 
Q 58.984375 38.1875 58.984375 25.984375 
Q 58.984375 13.765625 52.921875 6.171875 
Q 46.875 -1.421875 37.3125 -1.421875 
Q 31.296875 -1.421875 27.21875 0.890625 
Q 23.140625 3.21875 20.515625 8.109375 
L 20.515625 -15.578125 
L 29 -15.578125 
L 29 -20.796875 
L 2.875 -20.796875 
L 2.875 -15.578125 
L 11.53125 -15.578125 
z
" id="DejaVuSerif-112"/>
       <path d="M 20.515625 5.171875 
L 29 5.171875 
L 29 0 
L 2.875 0 
L 2.875 5.171875 
L 11.53125 5.171875 
L 11.53125 70.796875 
L 2.875 70.796875 
L 2.875 75.984375 
L 20.515625 75.984375 
z
" id="DejaVuSerif-108"/>
       <path d="M 9.71875 68.015625 
Q 9.71875 70.265625 11.34375 71.921875 
Q 12.984375 73.578125 15.28125 73.578125 
Q 17.53125 73.578125 19.15625 71.921875 
Q 20.796875 70.265625 20.796875 68.015625 
Q 20.796875 65.71875 19.1875 64.109375 
Q 17.578125 62.5 15.28125 62.5 
Q 12.984375 62.5 11.34375 64.109375 
Q 9.71875 65.71875 9.71875 68.015625 
z
M 21.1875 5.171875 
L 29.6875 5.171875 
L 29.6875 0 
L 3.609375 0 
L 3.609375 5.171875 
L 12.203125 5.171875 
L 12.203125 46.6875 
L 3.609375 46.6875 
L 3.609375 51.90625 
L 21.1875 51.90625 
z
" id="DejaVuSerif-105"/>
       <path d="M 10.796875 46.6875 
L 2.875 46.6875 
L 2.875 51.90625 
L 10.796875 51.90625 
L 10.796875 68.015625 
L 19.828125 68.015625 
L 19.828125 51.90625 
L 36.71875 51.90625 
L 36.71875 46.6875 
L 19.828125 46.6875 
L 19.828125 13.71875 
Q 19.828125 7.125 21.09375 5.265625 
Q 22.359375 3.421875 25.78125 3.421875 
Q 29.296875 3.421875 30.90625 5.484375 
Q 32.515625 7.5625 32.625 12.203125 
L 39.40625 12.203125 
Q 39.015625 5.125 35.546875 1.84375 
Q 32.078125 -1.421875 25 -1.421875 
Q 17.234375 -1.421875 14.015625 2.015625 
Q 10.796875 5.46875 10.796875 13.71875 
z
" id="DejaVuSerif-116"/>
      </defs>
      <use xlink:href="#DejaVuSerif-83"/>
      <use x="68.505859" xlink:href="#DejaVuSerif-112"/>
      <use x="132.519531" xlink:href="#DejaVuSerif-108"/>
      <use x="164.501953" xlink:href="#DejaVuSerif-105"/>
      <use x="196.484375" xlink:href="#DejaVuSerif-116"/>
     </g>
    </g>
   </g>
   <g id="matplotlib.axis_2">
    <g id="ytick_1">
     <g id="line2d_6">
      <defs>
       <path d="M 0 0 
L -3.5 0 
" id="m5a0e2a5279" style="stroke:#000000;stroke-width:0.8;"/>
      </defs>
      <g>
       <use style="stroke:#000000;stroke-width:0.8;" x="90" xlink:href="#m5a0e2a5279" y="640.8"/>
      </g>
     </g>
     <g id="text_7">
      <!-- 0 -->
      <g transform="translate(76.6375 644.599219)scale(0.1 -0.1)">
       <use xlink:href="#DejaVuSerif-48"/>
      </g>
     </g>
    </g>
    <g id="ytick_2">
     <g id="line2d_7">
      <g>
       <use style="stroke:#000000;stroke-width:0.8;" x="90" xlink:href="#m5a0e2a5279" y="528.815098"/>
      </g>
     </g>
     <g id="text_8">
      <!-- 1 -->
      <g transform="translate(76.6375 532.614317)scale(0.1 -0.1)">
       <use xlink:href="#DejaVuSerif-49"/>
      </g>
     </g>
    </g>
    <g id="ytick_3">
     <g id="line2d_8">
      <g>
       <use style="stroke:#000000;stroke-width:0.8;" x="90" xlink:href="#m5a0e2a5279" y="416.830197"/>
      </g>
     </g>
     <g id="text_9">
      <!-- 2 -->
      <g transform="translate(76.6375 420.629416)scale(0.1 -0.1)">
       <use xlink:href="#DejaVuSerif-50"/>
      </g>
     </g>
    </g>
    <g id="ytick_4">
     <g id="line2d_9">
      <g>
       <use style="stroke:#000000;stroke-width:0.8;" x="90" xlink:href="#m5a0e2a5279" y="304.845295"/>
      </g>
     </g>
     <g id="text_10">
      <!-- 3 -->
      <g transform="translate(76.6375 308.644514)scale(0.1 -0.1)">
       <use xlink:href="#DejaVuSerif-51"/>
      </g>
     </g>
    </g>
    <g id="ytick_5">
     <g id="line2d_10">
      <g>
       <use style="stroke:#000000;stroke-width:0.8;" x="90" xlink:href="#m5a0e2a5279" y="192.860394"/>
      </g>
     </g>
     <g id="text_11">
      <!-- 4 -->
      <g transform="translate(76.6375 196.659613)scale(0.1 -0.1)">
       <use xlink:href="#DejaVuSerif-52"/>
      </g>
     </g>
    </g>
    <g id="text_12">
     <!-- Merge -->
     <g transform="translate(70.415625 380.228906)rotate(-90)scale(0.1 -0.1)">
      <defs>
       <path d="M 5.515625 0 
L 5.515625 5.171875 
L 14.796875 5.171875 
L 14.796875 67.671875 
L 4.984375 67.671875 
L 4.984375 72.90625 
L 26.21875 72.90625 
L 51.8125 21 
L 77.390625 72.90625 
L 97.3125 72.90625 
L 97.3125 67.671875 
L 87.59375 67.671875 
L 87.59375 5.171875 
L 96.921875 5.171875 
L 96.921875 0 
L 68.40625 0 
L 68.40625 5.171875 
L 77.6875 5.171875 
L 77.6875 61.53125 
L 52.6875 10.6875 
L 45.796875 10.6875 
L 20.796875 61.53125 
L 20.796875 5.171875 
L 30.078125 5.171875 
L 30.078125 0 
z
" id="DejaVuSerif-77"/>
       <path d="M 54.203125 25 
L 15.484375 25 
L 15.484375 24.609375 
Q 15.484375 14.109375 19.4375 8.765625 
Q 23.390625 3.421875 31.109375 3.421875 
Q 37.015625 3.421875 40.796875 6.515625 
Q 44.578125 9.625 46.09375 15.71875 
L 53.328125 15.71875 
Q 51.171875 7.171875 45.375 2.875 
Q 39.59375 -1.421875 30.171875 -1.421875 
Q 18.796875 -1.421875 11.890625 6.078125 
Q 4.984375 13.578125 4.984375 25.984375 
Q 4.984375 38.28125 11.765625 45.796875 
Q 18.5625 53.328125 29.59375 53.328125 
Q 41.359375 53.328125 47.65625 46.0625 
Q 53.953125 38.8125 54.203125 25 
z
M 43.609375 30.171875 
Q 43.3125 39.265625 39.765625 43.875 
Q 36.234375 48.484375 29.59375 48.484375 
Q 23.390625 48.484375 19.828125 43.84375 
Q 16.265625 39.203125 15.484375 30.171875 
z
" id="DejaVuSerif-101"/>
       <path d="M 47.796875 52 
L 47.796875 39.015625 
L 42.625 39.015625 
Q 42.390625 42.875 40.484375 44.78125 
Q 38.578125 46.6875 34.90625 46.6875 
Q 28.265625 46.6875 24.71875 42.09375 
Q 21.1875 37.5 21.1875 28.90625 
L 21.1875 5.171875 
L 31.59375 5.171875 
L 31.59375 0 
L 4.109375 0 
L 4.109375 5.171875 
L 12.203125 5.171875 
L 12.203125 46.78125 
L 3.609375 46.78125 
L 3.609375 51.90625 
L 21.1875 51.90625 
L 21.1875 42.671875 
Q 23.828125 48.09375 27.96875 50.703125 
Q 32.125 53.328125 38.09375 53.328125 
Q 40.28125 53.328125 42.703125 52.984375 
Q 45.125 52.640625 47.796875 52 
z
" id="DejaVuSerif-114"/>
       <path d="M 52.484375 46.6875 
L 52.484375 1.125 
Q 52.484375 -10.0625 46.328125 -16.140625 
Q 40.1875 -22.21875 28.8125 -22.21875 
Q 23.6875 -22.21875 19 -21.28125 
Q 14.3125 -20.359375 10.015625 -18.5 
L 10.015625 -7.625 
L 14.703125 -7.625 
Q 15.578125 -12.703125 18.84375 -15.046875 
Q 22.125 -17.390625 28.21875 -17.390625 
Q 36.140625 -17.390625 39.8125 -12.921875 
Q 43.5 -8.453125 43.5 1.125 
L 43.5 8.109375 
Q 40.875 3.21875 36.796875 0.890625 
Q 32.71875 -1.421875 26.703125 -1.421875 
Q 17.140625 -1.421875 11.0625 6.171875 
Q 4.984375 13.765625 4.984375 25.984375 
Q 4.984375 38.1875 11.03125 45.75 
Q 17.09375 53.328125 26.703125 53.328125 
Q 32.71875 53.328125 36.796875 51 
Q 40.875 48.6875 43.5 43.796875 
L 43.5 51.90625 
L 61.078125 51.90625 
L 61.078125 46.6875 
z
M 43.5 28.515625 
Q 43.5 37.84375 39.90625 42.765625 
Q 36.328125 47.703125 29.5 47.703125 
Q 22.5625 47.703125 19.015625 42.234375 
Q 15.484375 36.765625 15.484375 25.984375 
Q 15.484375 15.234375 19.015625 9.71875 
Q 22.5625 4.203125 29.5 4.203125 
Q 36.328125 4.203125 39.90625 9.109375 
Q 43.5 14.015625 43.5 23.390625 
z
" id="DejaVuSerif-103"/>
      </defs>
      <use xlink:href="#DejaVuSerif-77"/>
      <use x="102.392578" xlink:href="#DejaVuSerif-101"/>
      <use x="161.572266" xlink:href="#DejaVuSerif-114"/>
      <use x="209.375" xlink:href="#DejaVuSerif-103"/>
      <use x="273.388672" xlink:href="#DejaVuSerif-101"/>
     </g>
    </g>
   </g>
   <g id="line2d_11">
    <path clip-path="url(#p57c6446f8a)" d="M 586.079928 622.287315 
L 508.984462 600.913432 
L 357.372112 484.327154 
L 160.950926 369.170038 
L 90.96628 346.253051 
L 90 345.853242 
L 90 345.853242 
" style="fill:none;stroke:#a52a2a;stroke-dasharray:1.85,0.8;stroke-dashoffset:0;stroke-opacity:0.5;stroke-width:0.5;"/>
   </g>
   <g id="line2d_12">
    <path clip-path="url(#p57c6446f8a)" d="M 594.47869 625.010043 
L 530.587556 620.28989 
L 181.314076 428.955395 
L 90 345.853242 
L 90 345.853242 
L 90 345.853242 
L 90 345.853242 
" style="fill:none;stroke:#ff0000;stroke-dasharray:1.85,0.8;stroke-dashoffset:0;stroke-opacity:0.5;stroke-width:0.5;"/>
   </g>
   <g id="line2d_13">
    <path clip-path="url(#p57c6446f8a)" d="M 648 627.747487 
L 596.430771 620.525514 
L 415.189709 563.350092 
L 183.148057 412.818596 
L 90.105679 345.86149 
L 90 345.853242 
L 90 345.853242 
" style="fill:none;stroke:#0000ff;stroke-dasharray:1.85,0.8;stroke-dashoffset:0;stroke-opacity:0.5;stroke-width:0.5;"/>
   </g>
   <g id="line2d_14">
    <path clip-path="url(#p57c6446f8a)" d="M 568.924357 621.298856 
L 384.949915 528.253667 
L 198.742649 376.93842 
L 93.185278 347.040522 
L 90.092735 345.874351 
L 90 345.853242 
L 90 345.853242 
" style="fill:none;stroke:#ffa500;stroke-dasharray:1.85,0.8;stroke-dashoffset:0;stroke-opacity:0.5;stroke-width:0.5;"/>
   </g>
   <g id="line2d_15">
    <path clip-path="url(#p57c6446f8a)" d="M 596.145675 628.517742 
L 372.116063 524.876584 
L 116.334784 366.909107 
L 97.669338 347.136145 
L 90 345.853242 
L 90 345.853242 
L 90 345.853242 
" style="fill:none;stroke:#ffa500;stroke-linecap:square;"/>
   </g>
   <g id="line2d_16">
    <path clip-path="url(#p57c6446f8a)" d="M 566.872958 628.525375 
L 470.30572 615.9917 
L 350.535557 552.421913 
L 150.59494 397.51708 
L 91.170245 346.135423 
L 90 345.853242 
L 90 345.853242 
" style="fill:none;stroke:#008000;stroke-dasharray:1.85,0.8;stroke-dashoffset:0;stroke-opacity:0.5;stroke-width:0.5;"/>
   </g>
   <g id="line2d_17">
    <path clip-path="url(#p57c6446f8a)" d="M 499.893174 620.822866 
L 417.112758 605.278683 
L 367.259229 553.642326 
L 220.543742 425.094194 
L 128.336748 361.458274 
L 90.105679 345.86149 
L 90 345.853242 
" style="fill:none;stroke:#0000ff;stroke-linecap:square;"/>
   </g>
   <g id="line2d_18">
    <path clip-path="url(#p57c6446f8a)" d="M 559.375751 624.013641 
L 302.249286 472.418713 
L 99.660688 361.293467 
L 90 345.853242 
L 90 345.853242 
L 90 345.853242 
L 90 345.853242 
" style="fill:none;stroke:#008000;stroke-linecap:square;"/>
   </g>
   <g id="line2d_19">
    <path clip-path="url(#p57c6446f8a)" d="M 617.785516 631.240648 
L 539.81596 612.743038 
L 450.716003 584.48882 
L 313.241084 476.100558 
L 99.569447 348.129871 
L 90 345.853242 
L 90 345.853242 
" style="fill:none;stroke:#0000ff;stroke-dasharray:1.85,0.8;stroke-dashoffset:0;stroke-opacity:0.5;stroke-width:0.5;"/>
   </g>
   <g id="line2d_20">
    <path clip-path="url(#p57c6446f8a)" d="M 466.146228 587.852608 
L 370.115439 488.658135 
L 271.166441 392.523357 
L 102.534184 350.11219 
L 95.089177 347.877934 
L 90.499695 346.08543 
L 90 345.853242 
" style="fill:none;stroke:#ff00ff;stroke-linecap:square;"/>
   </g>
   <g id="line2d_21">
    <path clip-path="url(#p57c6446f8a)" d="M 469.124539 598.920641 
L 140.018345 363.974269 
L 90 345.853242 
L 90 345.853242 
L 90 345.853242 
L 90 345.853242 
L 90 345.853242 
" style="fill:none;stroke:#ff0000;stroke-linecap:square;"/>
   </g>
   <g id="line2d_22">
    <path clip-path="url(#p57c6446f8a)" d="M 577.04068 621.411359 
L 375.343878 530.204972 
L 206.621126 426.108508 
L 109.234868 369.468458 
L 90.819015 346.305222 
L 90 345.853242 
L 90 345.853242 
" style="fill:none;stroke:#000000;stroke-linecap:square;"/>
   </g>
   <g id="line2d_23">
    <path clip-path="url(#p57c6446f8a)" d="M 537.853997 609.651669 
L 446.91363 571.812104 
L 163.506005 374.653366 
L 99.470705 352.515185 
L 90.215808 345.943437 
L 90 345.853242 
L 90 345.853242 
" style="fill:none;stroke:#008000;stroke-dasharray:1.85,0.8;stroke-dashoffset:0;stroke-opacity:0.5;stroke-width:0.5;"/>
   </g>
   <g id="line2d_24">
    <path clip-path="url(#p57c6446f8a)" d="M 604.312893 629.769663 
L 481.761517 599.202715 
L 254.367917 455.093193 
L 97.912316 347.844963 
L 90 345.853242 
L 90 345.853242 
L 90 345.853242 
" style="fill:none;stroke:#ff0000;stroke-dasharray:1.85,0.8;stroke-dashoffset:0;stroke-opacity:0.5;stroke-width:0.5;"/>
   </g>
   <g id="line2d_25">
    <path clip-path="url(#p57c6446f8a)" d="M 562.873786 616.645823 
L 406.920039 535.534628 
L 123.082833 372.429246 
L 97.553406 348.743888 
L 90.083732 345.883296 
L 90 345.853242 
L 90 345.853242 
" style="fill:none;stroke:#ffa500;stroke-dasharray:1.85,0.8;stroke-dashoffset:0;stroke-opacity:0.5;stroke-width:0.5;"/>
   </g>
   <g id="patch_3">
    <path d="M 90 640.8 
L 90 86.4 
" style="fill:none;stroke:#000000;stroke-linecap:square;stroke-linejoin:miter;stroke-width:0.8;"/>
   </g>
   <g id="patch_4">
    <path d="M 648 640.8 
L 648 86.4 
" style="fill:none;stroke:#000000;stroke-linecap:square;stroke-linejoin:miter;stroke-width:0.8;"/>
   </g>
   <g id="patch_5">
    <path d="M 90 640.8 
L 648 640.8 
" style="fill:none;stroke:#000000;stroke-linecap:square;stroke-linejoin:miter;stroke-width:0.8;"/>
   </g>
   <g id="patch_6">
    <path d="M 90 86.4 
L 648 86.4 
" style="fill:none;stroke:#000000;stroke-linecap:square;stroke-linejoin:miter;stroke-width:0.8;"/>
   </g>
   <g id="text_13">
    <!-- voi -->
    <g transform="translate(360.07875 80.4)scale(0.12 -0.12)">
     <defs>
      <path d="M 24.703125 0 
L 5.609375 46.6875 
L -0.296875 46.6875 
L -0.296875 51.90625 
L 23.578125 51.90625 
L 23.578125 46.6875 
L 15.28125 46.6875 
L 29.890625 10.984375 
L 44.484375 46.6875 
L 36.71875 46.6875 
L 36.71875 51.90625 
L 56.203125 51.90625 
L 56.203125 46.6875 
L 50.390625 46.6875 
L 31.296875 0 
z
" id="DejaVuSerif-118"/>
      <path d="M 30.078125 3.421875 
Q 37.3125 3.421875 40.984375 9.125 
Q 44.671875 14.84375 44.671875 25.984375 
Q 44.671875 37.109375 40.984375 42.796875 
Q 37.3125 48.484375 30.078125 48.484375 
Q 22.859375 48.484375 19.171875 42.796875 
Q 15.484375 37.109375 15.484375 25.984375 
Q 15.484375 14.84375 19.1875 9.125 
Q 22.90625 3.421875 30.078125 3.421875 
z
M 30.078125 -1.421875 
Q 18.75 -1.421875 11.859375 6.078125 
Q 4.984375 13.578125 4.984375 25.984375 
Q 4.984375 38.375 11.84375 45.84375 
Q 18.703125 53.328125 30.078125 53.328125 
Q 41.453125 53.328125 48.3125 45.84375 
Q 55.171875 38.375 55.171875 25.984375 
Q 55.171875 13.578125 48.3125 6.078125 
Q 41.453125 -1.421875 30.078125 -1.421875 
z
" id="DejaVuSerif-111"/>
     </defs>
     <use xlink:href="#DejaVuSerif-118"/>
     <use x="56.494141" xlink:href="#DejaVuSerif-111"/>
     <use x="116.699219" xlink:href="#DejaVuSerif-105"/>
    </g>
   </g>
   <g id="legend_1">
    <g id="patch_7">
     <path d="M 311.645312 318.74375 
L 641 318.74375 
Q 643 318.74375 643 316.74375 
L 643 93.4 
Q 643 91.4 641 91.4 
L 311.645312 91.4 
Q 309.645312 91.4 309.645312 93.4 
L 309.645312 316.74375 
Q 309.645312 318.74375 311.645312 318.74375 
z
" style="fill:#ffffff;opacity:0.8;stroke:#cccccc;stroke-linejoin:miter;"/>
    </g>
    <g id="PathCollection_16">
     <path d="M 321.553662 104.556738 
L 323.645312 102.465088 
L 325.736963 104.556738 
L 327.828613 102.465088 
L 325.736963 100.373437 
L 327.828613 98.281787 
L 325.736963 96.190137 
L 323.645312 98.281787 
L 321.553662 96.190137 
L 319.462012 98.281787 
L 321.553662 100.373437 
L 319.462012 102.465088 
z
" style="fill:none;stroke:#a52a2a;"/>
    </g>
    <g id="text_14">
     <!-- train_real_30nm_predict_real_90nm -->
     <g transform="translate(341.645312 102.998437)scale(0.1 -0.1)">
      <defs>
       <path d="M 39.796875 16.3125 
L 39.796875 27.296875 
L 28.21875 27.296875 
Q 21.53125 27.296875 18.25 24.40625 
Q 14.984375 21.53125 14.984375 15.578125 
Q 14.984375 10.15625 18.296875 6.984375 
Q 21.625 3.8125 27.296875 3.8125 
Q 32.90625 3.8125 36.34375 7.28125 
Q 39.796875 10.75 39.796875 16.3125 
z
M 48.78125 32.421875 
L 48.78125 5.171875 
L 56.78125 5.171875 
L 56.78125 0 
L 39.796875 0 
L 39.796875 5.609375 
Q 36.8125 2 32.90625 0.28125 
Q 29 -1.421875 23.78125 -1.421875 
Q 15.140625 -1.421875 10.0625 3.171875 
Q 4.984375 7.765625 4.984375 15.578125 
Q 4.984375 23.640625 10.796875 28.078125 
Q 16.609375 32.515625 27.203125 32.515625 
L 39.796875 32.515625 
L 39.796875 36.078125 
Q 39.796875 42 36.203125 45.234375 
Q 32.625 48.484375 26.125 48.484375 
Q 20.75 48.484375 17.578125 46.046875 
Q 14.40625 43.609375 13.625 38.8125 
L 8.984375 38.8125 
L 8.984375 49.3125 
Q 13.671875 51.3125 18.09375 52.3125 
Q 22.515625 53.328125 26.703125 53.328125 
Q 37.5 53.328125 43.140625 47.96875 
Q 48.78125 42.625 48.78125 32.421875 
z
" id="DejaVuSerif-97"/>
       <path d="M 4.109375 0 
L 4.109375 5.171875 
L 12.203125 5.171875 
L 12.203125 46.6875 
L 3.609375 46.6875 
L 3.609375 51.90625 
L 21.1875 51.90625 
L 21.1875 42.671875 
Q 23.6875 47.953125 27.65625 50.640625 
Q 31.640625 53.328125 36.921875 53.328125 
Q 45.515625 53.328125 49.5625 48.390625 
Q 53.609375 43.453125 53.609375 33.015625 
L 53.609375 5.171875 
L 61.625 5.171875 
L 61.625 0 
L 36.8125 0 
L 36.8125 5.171875 
L 44.578125 5.171875 
L 44.578125 30.171875 
Q 44.578125 39.703125 42.234375 43.234375 
Q 39.890625 46.78125 33.984375 46.78125 
Q 27.734375 46.78125 24.453125 42.203125 
Q 21.1875 37.640625 21.1875 28.90625 
L 21.1875 5.171875 
L 29 5.171875 
L 29 0 
z
" id="DejaVuSerif-110"/>
       <path d="M 50 -19.671875 
L 50 -23.578125 
L 0 -23.578125 
L 0 -19.671875 
z
" id="DejaVuSerif-95"/>
       <path d="M 51.8125 41.796875 
Q 54.390625 47.515625 58.421875 50.421875 
Q 62.453125 53.328125 67.828125 53.328125 
Q 75.984375 53.328125 79.984375 48.265625 
Q 83.984375 43.21875 83.984375 33.015625 
L 83.984375 5.171875 
L 92.09375 5.171875 
L 92.09375 0 
L 67.1875 0 
L 67.1875 5.171875 
L 75 5.171875 
L 75 31.984375 
Q 75 39.9375 72.65625 43.3125 
Q 70.3125 46.6875 64.890625 46.6875 
Q 58.890625 46.6875 55.734375 42.140625 
Q 52.59375 37.59375 52.59375 28.90625 
L 52.59375 5.171875 
L 60.40625 5.171875 
L 60.40625 0 
L 35.796875 0 
L 35.796875 5.171875 
L 43.609375 5.171875 
L 43.609375 32.328125 
Q 43.609375 40.09375 41.265625 43.390625 
Q 38.921875 46.6875 33.5 46.6875 
Q 27.484375 46.6875 24.328125 42.140625 
Q 21.1875 37.59375 21.1875 28.90625 
L 21.1875 5.171875 
L 29 5.171875 
L 29 0 
L 4.109375 0 
L 4.109375 5.171875 
L 12.203125 5.171875 
L 12.203125 46.78125 
L 3.609375 46.78125 
L 3.609375 51.90625 
L 21.1875 51.90625 
L 21.1875 42.671875 
Q 23.6875 47.859375 27.53125 50.59375 
Q 31.390625 53.328125 36.28125 53.328125 
Q 42.328125 53.328125 46.375 50.3125 
Q 50.4375 47.3125 51.8125 41.796875 
z
" id="DejaVuSerif-109"/>
       <path d="M 52.484375 5.171875 
L 61.078125 5.171875 
L 61.078125 0 
L 43.5 0 
L 43.5 8.109375 
Q 40.875 3.21875 36.796875 0.890625 
Q 32.71875 -1.421875 26.703125 -1.421875 
Q 17.140625 -1.421875 11.0625 6.171875 
Q 4.984375 13.765625 4.984375 25.984375 
Q 4.984375 38.1875 11.03125 45.75 
Q 17.09375 53.328125 26.703125 53.328125 
Q 32.71875 53.328125 36.796875 51 
Q 40.875 48.6875 43.5 43.796875 
L 43.5 70.796875 
L 35.015625 70.796875 
L 35.015625 75.984375 
L 52.484375 75.984375 
z
M 43.5 23.390625 
L 43.5 28.515625 
Q 43.5 37.84375 39.90625 42.765625 
Q 36.328125 47.703125 29.5 47.703125 
Q 22.5625 47.703125 19.015625 42.234375 
Q 15.484375 36.765625 15.484375 25.984375 
Q 15.484375 15.234375 19.015625 9.71875 
Q 22.5625 4.203125 29.5 4.203125 
Q 36.328125 4.203125 39.90625 9.109375 
Q 43.5 14.015625 43.5 23.390625 
z
" id="DejaVuSerif-100"/>
       <path d="M 51.421875 15.578125 
Q 49.515625 7.28125 44.09375 2.921875 
Q 38.671875 -1.421875 30.078125 -1.421875 
Q 18.75 -1.421875 11.859375 6.078125 
Q 4.984375 13.578125 4.984375 25.984375 
Q 4.984375 38.421875 11.859375 45.875 
Q 18.75 53.328125 30.078125 53.328125 
Q 35.015625 53.328125 39.890625 52.171875 
Q 44.78125 51.03125 49.703125 48.6875 
L 49.703125 35.40625 
L 44.484375 35.40625 
Q 43.453125 42.234375 40.015625 45.359375 
Q 36.578125 48.484375 30.171875 48.484375 
Q 22.90625 48.484375 19.1875 42.84375 
Q 15.484375 37.203125 15.484375 25.984375 
Q 15.484375 14.75 19.171875 9.078125 
Q 22.859375 3.421875 30.171875 3.421875 
Q 35.984375 3.421875 39.453125 6.4375 
Q 42.921875 9.46875 44.1875 15.578125 
z
" id="DejaVuSerif-99"/>
       <path d="M 46.78125 32.671875 
Q 43.5 29 39.25 27.1875 
Q 35.015625 25.390625 29.6875 25.390625 
Q 18.84375 25.390625 12.5625 31.9375 
Q 6.296875 38.484375 6.296875 49.8125 
Q 6.296875 60.890625 13.109375 67.546875 
Q 19.921875 74.21875 31.296875 74.21875 
Q 43.65625 74.21875 50.265625 65.015625 
Q 56.890625 55.8125 56.890625 38.71875 
Q 56.890625 19.578125 49.015625 9.078125 
Q 41.15625 -1.421875 26.90625 -1.421875 
Q 23.046875 -1.421875 18.796875 -0.6875 
Q 14.546875 0.046875 10.109375 1.515625 
L 10.109375 13.625 
L 15.578125 13.625 
Q 16.21875 8.6875 19.390625 6.046875 
Q 22.5625 3.421875 27.875 3.421875 
Q 37.359375 3.421875 41.984375 10.5625 
Q 46.625 17.71875 46.78125 32.671875 
z
M 30.90625 69.390625 
Q 23.96875 69.390625 20.28125 64.328125 
Q 16.609375 59.28125 16.609375 49.8125 
Q 16.609375 40.328125 20.28125 35.25 
Q 23.96875 30.171875 30.90625 30.171875 
Q 37.84375 30.171875 41.53125 35.078125 
Q 45.21875 39.984375 45.21875 49.21875 
Q 45.21875 58.9375 41.5 64.15625 
Q 37.796875 69.390625 30.90625 69.390625 
z
" id="DejaVuSerif-57"/>
      </defs>
      <use xlink:href="#DejaVuSerif-116"/>
      <use x="40.185547" xlink:href="#DejaVuSerif-114"/>
      <use x="87.988281" xlink:href="#DejaVuSerif-97"/>
      <use x="147.607422" xlink:href="#DejaVuSerif-105"/>
      <use x="179.589844" xlink:href="#DejaVuSerif-110"/>
      <use x="243.994141" xlink:href="#DejaVuSerif-95"/>
      <use x="293.994141" xlink:href="#DejaVuSerif-114"/>
      <use x="341.796875" xlink:href="#DejaVuSerif-101"/>
      <use x="400.976562" xlink:href="#DejaVuSerif-97"/>
      <use x="460.595703" xlink:href="#DejaVuSerif-108"/>
      <use x="492.578125" xlink:href="#DejaVuSerif-95"/>
      <use x="542.578125" xlink:href="#DejaVuSerif-51"/>
      <use x="606.201172" xlink:href="#DejaVuSerif-48"/>
      <use x="669.824219" xlink:href="#DejaVuSerif-110"/>
      <use x="734.228516" xlink:href="#DejaVuSerif-109"/>
      <use x="829.052734" xlink:href="#DejaVuSerif-95"/>
      <use x="879.052734" xlink:href="#DejaVuSerif-112"/>
      <use x="943.066406" xlink:href="#DejaVuSerif-114"/>
      <use x="990.869141" xlink:href="#DejaVuSerif-101"/>
      <use x="1050.048828" xlink:href="#DejaVuSerif-100"/>
      <use x="1114.0625" xlink:href="#DejaVuSerif-105"/>
      <use x="1146.044922" xlink:href="#DejaVuSerif-99"/>
      <use x="1202.050781" xlink:href="#DejaVuSerif-116"/>
      <use x="1242.236328" xlink:href="#DejaVuSerif-95"/>
      <use x="1292.236328" xlink:href="#DejaVuSerif-114"/>
      <use x="1340.039062" xlink:href="#DejaVuSerif-101"/>
      <use x="1399.21875" xlink:href="#DejaVuSerif-97"/>
      <use x="1458.837891" xlink:href="#DejaVuSerif-108"/>
      <use x="1490.820312" xlink:href="#DejaVuSerif-95"/>
      <use x="1540.820312" xlink:href="#DejaVuSerif-57"/>
      <use x="1604.443359" xlink:href="#DejaVuSerif-48"/>
      <use x="1668.066406" xlink:href="#DejaVuSerif-110"/>
      <use x="1732.470703" xlink:href="#DejaVuSerif-109"/>
     </g>
    </g>
    <g id="PathCollection_17">
     <path d="M 323.645312 119.512988 
L 327.828613 111.146387 
L 319.462012 111.146387 
z
" style="fill:none;stroke:#ff0000;"/>
    </g>
    <g id="text_15">
     <!-- train_link20220407s4c310000_90nm_predict_real_90nm -->
     <g transform="translate(341.645312 117.954687)scale(0.1 -0.1)">
      <defs>
       <path d="M 28.609375 0 
L 3.421875 0 
L 3.421875 5.171875 
L 11.53125 5.171875 
L 11.53125 70.796875 
L 2.875 70.796875 
L 2.875 75.984375 
L 20.515625 75.984375 
L 20.515625 26.515625 
L 42.390625 46.6875 
L 34.90625 46.6875 
L 34.90625 51.90625 
L 58.40625 51.90625 
L 58.40625 46.6875 
L 49.515625 46.6875 
L 34.078125 32.421875 
L 53.8125 5.171875 
L 61.28125 5.171875 
L 61.28125 0 
L 35.6875 0 
L 35.6875 5.171875 
L 43.109375 5.171875 
L 27.59375 26.515625 
L 20.515625 19.921875 
L 20.515625 5.171875 
L 28.609375 5.171875 
z
" id="DejaVuSerif-107"/>
       <path d="M 56.390625 67.921875 
L 27.875 0 
L 20.609375 0 
L 47.796875 64.890625 
L 14.109375 64.890625 
L 14.109375 55.90625 
L 8.40625 55.90625 
L 8.40625 72.90625 
L 56.390625 72.90625 
z
" id="DejaVuSerif-55"/>
       <path d="M 5.609375 2.875 
L 5.609375 14.984375 
L 10.796875 14.984375 
Q 10.984375 9.1875 14.421875 6.296875 
Q 17.875 3.421875 24.609375 3.421875 
Q 30.671875 3.421875 33.84375 5.6875 
Q 37.015625 7.953125 37.015625 12.3125 
Q 37.015625 15.71875 34.6875 17.8125 
Q 32.375 19.921875 24.90625 22.3125 
L 18.40625 24.515625 
Q 11.71875 26.65625 8.71875 29.875 
Q 5.71875 33.109375 5.71875 38.09375 
Q 5.71875 45.21875 10.9375 49.265625 
Q 16.15625 53.328125 25.390625 53.328125 
Q 29.5 53.328125 34.03125 52.25 
Q 38.578125 51.171875 43.40625 49.125 
L 43.40625 37.796875 
L 38.234375 37.796875 
Q 38.03125 42.828125 34.703125 45.65625 
Q 31.390625 48.484375 25.6875 48.484375 
Q 20.015625 48.484375 17.109375 46.484375 
Q 14.203125 44.484375 14.203125 40.484375 
Q 14.203125 37.203125 16.40625 35.21875 
Q 18.609375 33.25 25.203125 31.203125 
L 32.328125 29 
Q 39.703125 26.703125 42.9375 23.265625 
Q 46.1875 19.828125 46.1875 14.40625 
Q 46.1875 7.03125 40.546875 2.796875 
Q 34.90625 -1.421875 25 -1.421875 
Q 19.96875 -1.421875 15.1875 -0.34375 
Q 10.40625 0.734375 5.609375 2.875 
z
" id="DejaVuSerif-115"/>
      </defs>
      <use xlink:href="#DejaVuSerif-116"/>
      <use x="40.185547" xlink:href="#DejaVuSerif-114"/>
      <use x="87.988281" xlink:href="#DejaVuSerif-97"/>
      <use x="147.607422" xlink:href="#DejaVuSerif-105"/>
      <use x="179.589844" xlink:href="#DejaVuSerif-110"/>
      <use x="243.994141" xlink:href="#DejaVuSerif-95"/>
      <use x="293.994141" xlink:href="#DejaVuSerif-108"/>
      <use x="325.976562" xlink:href="#DejaVuSerif-105"/>
      <use x="357.958984" xlink:href="#DejaVuSerif-110"/>
      <use x="422.363281" xlink:href="#DejaVuSerif-107"/>
      <use x="482.958984" xlink:href="#DejaVuSerif-50"/>
      <use x="546.582031" xlink:href="#DejaVuSerif-48"/>
      <use x="610.205078" xlink:href="#DejaVuSerif-50"/>
      <use x="673.828125" xlink:href="#DejaVuSerif-50"/>
      <use x="737.451172" xlink:href="#DejaVuSerif-48"/>
      <use x="801.074219" xlink:href="#DejaVuSerif-52"/>
      <use x="864.697266" xlink:href="#DejaVuSerif-48"/>
      <use x="928.320312" xlink:href="#DejaVuSerif-55"/>
      <use x="991.943359" xlink:href="#DejaVuSerif-115"/>
      <use x="1043.261719" xlink:href="#DejaVuSerif-52"/>
      <use x="1106.884766" xlink:href="#DejaVuSerif-99"/>
      <use x="1162.890625" xlink:href="#DejaVuSerif-51"/>
      <use x="1226.513672" xlink:href="#DejaVuSerif-49"/>
      <use x="1290.136719" xlink:href="#DejaVuSerif-48"/>
      <use x="1353.759766" xlink:href="#DejaVuSerif-48"/>
      <use x="1417.382812" xlink:href="#DejaVuSerif-48"/>
      <use x="1481.005859" xlink:href="#DejaVuSerif-48"/>
      <use x="1544.628906" xlink:href="#DejaVuSerif-95"/>
      <use x="1594.628906" xlink:href="#DejaVuSerif-57"/>
      <use x="1658.251953" xlink:href="#DejaVuSerif-48"/>
      <use x="1721.875" xlink:href="#DejaVuSerif-110"/>
      <use x="1786.279297" xlink:href="#DejaVuSerif-109"/>
      <use x="1881.103516" xlink:href="#DejaVuSerif-95"/>
      <use x="1931.103516" xlink:href="#DejaVuSerif-112"/>
      <use x="1995.117188" xlink:href="#DejaVuSerif-114"/>
      <use x="2042.919922" xlink:href="#DejaVuSerif-101"/>
      <use x="2102.099609" xlink:href="#DejaVuSerif-100"/>
      <use x="2166.113281" xlink:href="#DejaVuSerif-105"/>
      <use x="2198.095703" xlink:href="#DejaVuSerif-99"/>
      <use x="2254.101562" xlink:href="#DejaVuSerif-116"/>
      <use x="2294.287109" xlink:href="#DejaVuSerif-95"/>
      <use x="2344.287109" xlink:href="#DejaVuSerif-114"/>
      <use x="2392.089844" xlink:href="#DejaVuSerif-101"/>
      <use x="2451.269531" xlink:href="#DejaVuSerif-97"/>
      <use x="2510.888672" xlink:href="#DejaVuSerif-108"/>
      <use x="2542.871094" xlink:href="#DejaVuSerif-95"/>
      <use x="2592.871094" xlink:href="#DejaVuSerif-57"/>
      <use x="2656.494141" xlink:href="#DejaVuSerif-48"/>
      <use x="2720.117188" xlink:href="#DejaVuSerif-110"/>
      <use x="2784.521484" xlink:href="#DejaVuSerif-109"/>
     </g>
    </g>
    <g id="PathCollection_18">
     <path d="M 323.645312 134.469238 
L 327.828613 126.102637 
L 319.462012 126.102637 
z
" style="fill:none;stroke:#0000ff;"/>
    </g>
    <g id="text_16">
     <!-- train_split20220407s13c350000_90nm_predict_real_90nm -->
     <g transform="translate(341.645312 132.910937)scale(0.1 -0.1)">
      <defs>
       <path d="M 50.296875 72.90625 
L 50.296875 64.890625 
L 16.890625 64.890625 
L 16.890625 44 
Q 19.4375 45.75 22.828125 46.625 
Q 26.21875 47.515625 30.421875 47.515625 
Q 42.234375 47.515625 49.0625 40.96875 
Q 55.90625 34.421875 55.90625 23.09375 
Q 55.90625 11.53125 49 5.046875 
Q 42.09375 -1.421875 29.59375 -1.421875 
Q 24.5625 -1.421875 19.28125 -0.1875 
Q 14.015625 1.03125 8.5 3.515625 
L 8.5 17.671875 
L 14.015625 17.671875 
Q 14.453125 10.75 18.421875 7.078125 
Q 22.40625 3.421875 29.59375 3.421875 
Q 37.3125 3.421875 41.453125 8.5 
Q 45.609375 13.578125 45.609375 23.09375 
Q 45.609375 32.5625 41.484375 37.609375 
Q 37.359375 42.671875 29.59375 42.671875 
Q 25.203125 42.671875 21.84375 41.109375 
Q 18.5 39.546875 15.921875 36.28125 
L 11.71875 36.28125 
L 11.71875 72.90625 
z
" id="DejaVuSerif-53"/>
      </defs>
      <use xlink:href="#DejaVuSerif-116"/>
      <use x="40.185547" xlink:href="#DejaVuSerif-114"/>
      <use x="87.988281" xlink:href="#DejaVuSerif-97"/>
      <use x="147.607422" xlink:href="#DejaVuSerif-105"/>
      <use x="179.589844" xlink:href="#DejaVuSerif-110"/>
      <use x="243.994141" xlink:href="#DejaVuSerif-95"/>
      <use x="293.994141" xlink:href="#DejaVuSerif-115"/>
      <use x="345.3125" xlink:href="#DejaVuSerif-112"/>
      <use x="409.326172" xlink:href="#DejaVuSerif-108"/>
      <use x="441.308594" xlink:href="#DejaVuSerif-105"/>
      <use x="473.291016" xlink:href="#DejaVuSerif-116"/>
      <use x="513.476562" xlink:href="#DejaVuSerif-50"/>
      <use x="577.099609" xlink:href="#DejaVuSerif-48"/>
      <use x="640.722656" xlink:href="#DejaVuSerif-50"/>
      <use x="704.345703" xlink:href="#DejaVuSerif-50"/>
      <use x="767.96875" xlink:href="#DejaVuSerif-48"/>
      <use x="831.591797" xlink:href="#DejaVuSerif-52"/>
      <use x="895.214844" xlink:href="#DejaVuSerif-48"/>
      <use x="958.837891" xlink:href="#DejaVuSerif-55"/>
      <use x="1022.460938" xlink:href="#DejaVuSerif-115"/>
      <use x="1073.779297" xlink:href="#DejaVuSerif-49"/>
      <use x="1137.402344" xlink:href="#DejaVuSerif-51"/>
      <use x="1201.025391" xlink:href="#DejaVuSerif-99"/>
      <use x="1257.03125" xlink:href="#DejaVuSerif-51"/>
      <use x="1320.654297" xlink:href="#DejaVuSerif-53"/>
      <use x="1384.277344" xlink:href="#DejaVuSerif-48"/>
      <use x="1447.900391" xlink:href="#DejaVuSerif-48"/>
      <use x="1511.523438" xlink:href="#DejaVuSerif-48"/>
      <use x="1575.146484" xlink:href="#DejaVuSerif-48"/>
      <use x="1638.769531" xlink:href="#DejaVuSerif-95"/>
      <use x="1688.769531" xlink:href="#DejaVuSerif-57"/>
      <use x="1752.392578" xlink:href="#DejaVuSerif-48"/>
      <use x="1816.015625" xlink:href="#DejaVuSerif-110"/>
      <use x="1880.419922" xlink:href="#DejaVuSerif-109"/>
      <use x="1975.244141" xlink:href="#DejaVuSerif-95"/>
      <use x="2025.244141" xlink:href="#DejaVuSerif-112"/>
      <use x="2089.257812" xlink:href="#DejaVuSerif-114"/>
      <use x="2137.060547" xlink:href="#DejaVuSerif-101"/>
      <use x="2196.240234" xlink:href="#DejaVuSerif-100"/>
      <use x="2260.253906" xlink:href="#DejaVuSerif-105"/>
      <use x="2292.236328" xlink:href="#DejaVuSerif-99"/>
      <use x="2348.242188" xlink:href="#DejaVuSerif-116"/>
      <use x="2388.427734" xlink:href="#DejaVuSerif-95"/>
      <use x="2438.427734" xlink:href="#DejaVuSerif-114"/>
      <use x="2486.230469" xlink:href="#DejaVuSerif-101"/>
      <use x="2545.410156" xlink:href="#DejaVuSerif-97"/>
      <use x="2605.029297" xlink:href="#DejaVuSerif-108"/>
      <use x="2637.011719" xlink:href="#DejaVuSerif-95"/>
      <use x="2687.011719" xlink:href="#DejaVuSerif-57"/>
      <use x="2750.634766" xlink:href="#DejaVuSerif-48"/>
      <use x="2814.257812" xlink:href="#DejaVuSerif-110"/>
      <use x="2878.662109" xlink:href="#DejaVuSerif-109"/>
     </g>
    </g>
    <g id="PathCollection_19">
     <path d="M 323.645312 141.058887 
L 319.462012 149.425488 
L 327.828613 149.425488 
z
" style="fill:none;stroke:#ffa500;"/>
    </g>
    <g id="text_17">
     <!-- train_real_30nm_predict_link20220407s4c310000_30nm -->
     <g transform="translate(341.645312 147.867188)scale(0.1 -0.1)">
      <use xlink:href="#DejaVuSerif-116"/>
      <use x="40.185547" xlink:href="#DejaVuSerif-114"/>
      <use x="87.988281" xlink:href="#DejaVuSerif-97"/>
      <use x="147.607422" xlink:href="#DejaVuSerif-105"/>
      <use x="179.589844" xlink:href="#DejaVuSerif-110"/>
      <use x="243.994141" xlink:href="#DejaVuSerif-95"/>
      <use x="293.994141" xlink:href="#DejaVuSerif-114"/>
      <use x="341.796875" xlink:href="#DejaVuSerif-101"/>
      <use x="400.976562" xlink:href="#DejaVuSerif-97"/>
      <use x="460.595703" xlink:href="#DejaVuSerif-108"/>
      <use x="492.578125" xlink:href="#DejaVuSerif-95"/>
      <use x="542.578125" xlink:href="#DejaVuSerif-51"/>
      <use x="606.201172" xlink:href="#DejaVuSerif-48"/>
      <use x="669.824219" xlink:href="#DejaVuSerif-110"/>
      <use x="734.228516" xlink:href="#DejaVuSerif-109"/>
      <use x="829.052734" xlink:href="#DejaVuSerif-95"/>
      <use x="879.052734" xlink:href="#DejaVuSerif-112"/>
      <use x="943.066406" xlink:href="#DejaVuSerif-114"/>
      <use x="990.869141" xlink:href="#DejaVuSerif-101"/>
      <use x="1050.048828" xlink:href="#DejaVuSerif-100"/>
      <use x="1114.0625" xlink:href="#DejaVuSerif-105"/>
      <use x="1146.044922" xlink:href="#DejaVuSerif-99"/>
      <use x="1202.050781" xlink:href="#DejaVuSerif-116"/>
      <use x="1242.236328" xlink:href="#DejaVuSerif-95"/>
      <use x="1292.236328" xlink:href="#DejaVuSerif-108"/>
      <use x="1324.21875" xlink:href="#DejaVuSerif-105"/>
      <use x="1356.201172" xlink:href="#DejaVuSerif-110"/>
      <use x="1420.605469" xlink:href="#DejaVuSerif-107"/>
      <use x="1481.201172" xlink:href="#DejaVuSerif-50"/>
      <use x="1544.824219" xlink:href="#DejaVuSerif-48"/>
      <use x="1608.447266" xlink:href="#DejaVuSerif-50"/>
      <use x="1672.070312" xlink:href="#DejaVuSerif-50"/>
      <use x="1735.693359" xlink:href="#DejaVuSerif-48"/>
      <use x="1799.316406" xlink:href="#DejaVuSerif-52"/>
      <use x="1862.939453" xlink:href="#DejaVuSerif-48"/>
      <use x="1926.5625" xlink:href="#DejaVuSerif-55"/>
      <use x="1990.185547" xlink:href="#DejaVuSerif-115"/>
      <use x="2041.503906" xlink:href="#DejaVuSerif-52"/>
      <use x="2105.126953" xlink:href="#DejaVuSerif-99"/>
      <use x="2161.132812" xlink:href="#DejaVuSerif-51"/>
      <use x="2224.755859" xlink:href="#DejaVuSerif-49"/>
      <use x="2288.378906" xlink:href="#DejaVuSerif-48"/>
      <use x="2352.001953" xlink:href="#DejaVuSerif-48"/>
      <use x="2415.625" xlink:href="#DejaVuSerif-48"/>
      <use x="2479.248047" xlink:href="#DejaVuSerif-48"/>
      <use x="2542.871094" xlink:href="#DejaVuSerif-95"/>
      <use x="2592.871094" xlink:href="#DejaVuSerif-51"/>
      <use x="2656.494141" xlink:href="#DejaVuSerif-48"/>
      <use x="2720.117188" xlink:href="#DejaVuSerif-110"/>
      <use x="2784.521484" xlink:href="#DejaVuSerif-109"/>
     </g>
    </g>
    <g id="PathCollection_20">
     <g>
      <use style="fill:#ffa500;stroke:#ffa500;" x="323.645312" xlink:href="#m5e3e0560cf" y="160.198437"/>
     </g>
    </g>
    <g id="text_18">
     <!-- train_real_30nm_predict_link20220407s42c310000_30nm -->
     <g transform="translate(341.645312 162.823437)scale(0.1 -0.1)">
      <use xlink:href="#DejaVuSerif-116"/>
      <use x="40.185547" xlink:href="#DejaVuSerif-114"/>
      <use x="87.988281" xlink:href="#DejaVuSerif-97"/>
      <use x="147.607422" xlink:href="#DejaVuSerif-105"/>
      <use x="179.589844" xlink:href="#DejaVuSerif-110"/>
      <use x="243.994141" xlink:href="#DejaVuSerif-95"/>
      <use x="293.994141" xlink:href="#DejaVuSerif-114"/>
      <use x="341.796875" xlink:href="#DejaVuSerif-101"/>
      <use x="400.976562" xlink:href="#DejaVuSerif-97"/>
      <use x="460.595703" xlink:href="#DejaVuSerif-108"/>
      <use x="492.578125" xlink:href="#DejaVuSerif-95"/>
      <use x="542.578125" xlink:href="#DejaVuSerif-51"/>
      <use x="606.201172" xlink:href="#DejaVuSerif-48"/>
      <use x="669.824219" xlink:href="#DejaVuSerif-110"/>
      <use x="734.228516" xlink:href="#DejaVuSerif-109"/>
      <use x="829.052734" xlink:href="#DejaVuSerif-95"/>
      <use x="879.052734" xlink:href="#DejaVuSerif-112"/>
      <use x="943.066406" xlink:href="#DejaVuSerif-114"/>
      <use x="990.869141" xlink:href="#DejaVuSerif-101"/>
      <use x="1050.048828" xlink:href="#DejaVuSerif-100"/>
      <use x="1114.0625" xlink:href="#DejaVuSerif-105"/>
      <use x="1146.044922" xlink:href="#DejaVuSerif-99"/>
      <use x="1202.050781" xlink:href="#DejaVuSerif-116"/>
      <use x="1242.236328" xlink:href="#DejaVuSerif-95"/>
      <use x="1292.236328" xlink:href="#DejaVuSerif-108"/>
      <use x="1324.21875" xlink:href="#DejaVuSerif-105"/>
      <use x="1356.201172" xlink:href="#DejaVuSerif-110"/>
      <use x="1420.605469" xlink:href="#DejaVuSerif-107"/>
      <use x="1481.201172" xlink:href="#DejaVuSerif-50"/>
      <use x="1544.824219" xlink:href="#DejaVuSerif-48"/>
      <use x="1608.447266" xlink:href="#DejaVuSerif-50"/>
      <use x="1672.070312" xlink:href="#DejaVuSerif-50"/>
      <use x="1735.693359" xlink:href="#DejaVuSerif-48"/>
      <use x="1799.316406" xlink:href="#DejaVuSerif-52"/>
      <use x="1862.939453" xlink:href="#DejaVuSerif-48"/>
      <use x="1926.5625" xlink:href="#DejaVuSerif-55"/>
      <use x="1990.185547" xlink:href="#DejaVuSerif-115"/>
      <use x="2041.503906" xlink:href="#DejaVuSerif-52"/>
      <use x="2105.126953" xlink:href="#DejaVuSerif-50"/>
      <use x="2168.75" xlink:href="#DejaVuSerif-99"/>
      <use x="2224.755859" xlink:href="#DejaVuSerif-51"/>
      <use x="2288.378906" xlink:href="#DejaVuSerif-49"/>
      <use x="2352.001953" xlink:href="#DejaVuSerif-48"/>
      <use x="2415.625" xlink:href="#DejaVuSerif-48"/>
      <use x="2479.248047" xlink:href="#DejaVuSerif-48"/>
      <use x="2542.871094" xlink:href="#DejaVuSerif-48"/>
      <use x="2606.494141" xlink:href="#DejaVuSerif-95"/>
      <use x="2656.494141" xlink:href="#DejaVuSerif-51"/>
      <use x="2720.117188" xlink:href="#DejaVuSerif-48"/>
      <use x="2783.740234" xlink:href="#DejaVuSerif-110"/>
      <use x="2848.144531" xlink:href="#DejaVuSerif-109"/>
     </g>
    </g>
    <g id="PathCollection_21">
     <path d="M 323.645312 170.971387 
L 319.462012 179.337988 
L 327.828613 179.337988 
z
" style="fill:none;stroke:#008000;"/>
    </g>
    <g id="text_19">
     <!-- train_real_30nm_predict_split20220407s13c350000_30nm -->
     <g transform="translate(341.645312 177.779687)scale(0.1 -0.1)">
      <use xlink:href="#DejaVuSerif-116"/>
      <use x="40.185547" xlink:href="#DejaVuSerif-114"/>
      <use x="87.988281" xlink:href="#DejaVuSerif-97"/>
      <use x="147.607422" xlink:href="#DejaVuSerif-105"/>
      <use x="179.589844" xlink:href="#DejaVuSerif-110"/>
      <use x="243.994141" xlink:href="#DejaVuSerif-95"/>
      <use x="293.994141" xlink:href="#DejaVuSerif-114"/>
      <use x="341.796875" xlink:href="#DejaVuSerif-101"/>
      <use x="400.976562" xlink:href="#DejaVuSerif-97"/>
      <use x="460.595703" xlink:href="#DejaVuSerif-108"/>
      <use x="492.578125" xlink:href="#DejaVuSerif-95"/>
      <use x="542.578125" xlink:href="#DejaVuSerif-51"/>
      <use x="606.201172" xlink:href="#DejaVuSerif-48"/>
      <use x="669.824219" xlink:href="#DejaVuSerif-110"/>
      <use x="734.228516" xlink:href="#DejaVuSerif-109"/>
      <use x="829.052734" xlink:href="#DejaVuSerif-95"/>
      <use x="879.052734" xlink:href="#DejaVuSerif-112"/>
      <use x="943.066406" xlink:href="#DejaVuSerif-114"/>
      <use x="990.869141" xlink:href="#DejaVuSerif-101"/>
      <use x="1050.048828" xlink:href="#DejaVuSerif-100"/>
      <use x="1114.0625" xlink:href="#DejaVuSerif-105"/>
      <use x="1146.044922" xlink:href="#DejaVuSerif-99"/>
      <use x="1202.050781" xlink:href="#DejaVuSerif-116"/>
      <use x="1242.236328" xlink:href="#DejaVuSerif-95"/>
      <use x="1292.236328" xlink:href="#DejaVuSerif-115"/>
      <use x="1343.554688" xlink:href="#DejaVuSerif-112"/>
      <use x="1407.568359" xlink:href="#DejaVuSerif-108"/>
      <use x="1439.550781" xlink:href="#DejaVuSerif-105"/>
      <use x="1471.533203" xlink:href="#DejaVuSerif-116"/>
      <use x="1511.71875" xlink:href="#DejaVuSerif-50"/>
      <use x="1575.341797" xlink:href="#DejaVuSerif-48"/>
      <use x="1638.964844" xlink:href="#DejaVuSerif-50"/>
      <use x="1702.587891" xlink:href="#DejaVuSerif-50"/>
      <use x="1766.210938" xlink:href="#DejaVuSerif-48"/>
      <use x="1829.833984" xlink:href="#DejaVuSerif-52"/>
      <use x="1893.457031" xlink:href="#DejaVuSerif-48"/>
      <use x="1957.080078" xlink:href="#DejaVuSerif-55"/>
      <use x="2020.703125" xlink:href="#DejaVuSerif-115"/>
      <use x="2072.021484" xlink:href="#DejaVuSerif-49"/>
      <use x="2135.644531" xlink:href="#DejaVuSerif-51"/>
      <use x="2199.267578" xlink:href="#DejaVuSerif-99"/>
      <use x="2255.273438" xlink:href="#DejaVuSerif-51"/>
      <use x="2318.896484" xlink:href="#DejaVuSerif-53"/>
      <use x="2382.519531" xlink:href="#DejaVuSerif-48"/>
      <use x="2446.142578" xlink:href="#DejaVuSerif-48"/>
      <use x="2509.765625" xlink:href="#DejaVuSerif-48"/>
      <use x="2573.388672" xlink:href="#DejaVuSerif-48"/>
      <use x="2637.011719" xlink:href="#DejaVuSerif-95"/>
      <use x="2687.011719" xlink:href="#DejaVuSerif-51"/>
      <use x="2750.634766" xlink:href="#DejaVuSerif-48"/>
      <use x="2814.257812" xlink:href="#DejaVuSerif-110"/>
      <use x="2878.662109" xlink:href="#DejaVuSerif-109"/>
     </g>
    </g>
    <g id="PathCollection_22">
     <g>
      <use style="fill:#0000ff;stroke:#0000ff;" x="323.645312" xlink:href="#me4a69d188d" y="190.110937"/>
     </g>
    </g>
    <g id="text_20">
     <!-- train_split20220407s42c340000_90nm_predict_real_90nm -->
     <g transform="translate(341.645312 192.735937)scale(0.1 -0.1)">
      <use xlink:href="#DejaVuSerif-116"/>
      <use x="40.185547" xlink:href="#DejaVuSerif-114"/>
      <use x="87.988281" xlink:href="#DejaVuSerif-97"/>
      <use x="147.607422" xlink:href="#DejaVuSerif-105"/>
      <use x="179.589844" xlink:href="#DejaVuSerif-110"/>
      <use x="243.994141" xlink:href="#DejaVuSerif-95"/>
      <use x="293.994141" xlink:href="#DejaVuSerif-115"/>
      <use x="345.3125" xlink:href="#DejaVuSerif-112"/>
      <use x="409.326172" xlink:href="#DejaVuSerif-108"/>
      <use x="441.308594" xlink:href="#DejaVuSerif-105"/>
      <use x="473.291016" xlink:href="#DejaVuSerif-116"/>
      <use x="513.476562" xlink:href="#DejaVuSerif-50"/>
      <use x="577.099609" xlink:href="#DejaVuSerif-48"/>
      <use x="640.722656" xlink:href="#DejaVuSerif-50"/>
      <use x="704.345703" xlink:href="#DejaVuSerif-50"/>
      <use x="767.96875" xlink:href="#DejaVuSerif-48"/>
      <use x="831.591797" xlink:href="#DejaVuSerif-52"/>
      <use x="895.214844" xlink:href="#DejaVuSerif-48"/>
      <use x="958.837891" xlink:href="#DejaVuSerif-55"/>
      <use x="1022.460938" xlink:href="#DejaVuSerif-115"/>
      <use x="1073.779297" xlink:href="#DejaVuSerif-52"/>
      <use x="1137.402344" xlink:href="#DejaVuSerif-50"/>
      <use x="1201.025391" xlink:href="#DejaVuSerif-99"/>
      <use x="1257.03125" xlink:href="#DejaVuSerif-51"/>
      <use x="1320.654297" xlink:href="#DejaVuSerif-52"/>
      <use x="1384.277344" xlink:href="#DejaVuSerif-48"/>
      <use x="1447.900391" xlink:href="#DejaVuSerif-48"/>
      <use x="1511.523438" xlink:href="#DejaVuSerif-48"/>
      <use x="1575.146484" xlink:href="#DejaVuSerif-48"/>
      <use x="1638.769531" xlink:href="#DejaVuSerif-95"/>
      <use x="1688.769531" xlink:href="#DejaVuSerif-57"/>
      <use x="1752.392578" xlink:href="#DejaVuSerif-48"/>
      <use x="1816.015625" xlink:href="#DejaVuSerif-110"/>
      <use x="1880.419922" xlink:href="#DejaVuSerif-109"/>
      <use x="1975.244141" xlink:href="#DejaVuSerif-95"/>
      <use x="2025.244141" xlink:href="#DejaVuSerif-112"/>
      <use x="2089.257812" xlink:href="#DejaVuSerif-114"/>
      <use x="2137.060547" xlink:href="#DejaVuSerif-101"/>
      <use x="2196.240234" xlink:href="#DejaVuSerif-100"/>
      <use x="2260.253906" xlink:href="#DejaVuSerif-105"/>
      <use x="2292.236328" xlink:href="#DejaVuSerif-99"/>
      <use x="2348.242188" xlink:href="#DejaVuSerif-116"/>
      <use x="2388.427734" xlink:href="#DejaVuSerif-95"/>
      <use x="2438.427734" xlink:href="#DejaVuSerif-114"/>
      <use x="2486.230469" xlink:href="#DejaVuSerif-101"/>
      <use x="2545.410156" xlink:href="#DejaVuSerif-97"/>
      <use x="2605.029297" xlink:href="#DejaVuSerif-108"/>
      <use x="2637.011719" xlink:href="#DejaVuSerif-95"/>
      <use x="2687.011719" xlink:href="#DejaVuSerif-57"/>
      <use x="2750.634766" xlink:href="#DejaVuSerif-48"/>
      <use x="2814.257812" xlink:href="#DejaVuSerif-110"/>
      <use x="2878.662109" xlink:href="#DejaVuSerif-109"/>
     </g>
    </g>
    <g id="PathCollection_23">
     <g>
      <use style="fill:#008000;stroke:#008000;" x="323.645312" xlink:href="#mdd0008d7e7" y="205.067187"/>
     </g>
    </g>
    <g id="text_21">
     <!-- train_real_30nm_predict_split20220407s42c340000_30nm -->
     <g transform="translate(341.645312 207.692187)scale(0.1 -0.1)">
      <use xlink:href="#DejaVuSerif-116"/>
      <use x="40.185547" xlink:href="#DejaVuSerif-114"/>
      <use x="87.988281" xlink:href="#DejaVuSerif-97"/>
      <use x="147.607422" xlink:href="#DejaVuSerif-105"/>
      <use x="179.589844" xlink:href="#DejaVuSerif-110"/>
      <use x="243.994141" xlink:href="#DejaVuSerif-95"/>
      <use x="293.994141" xlink:href="#DejaVuSerif-114"/>
      <use x="341.796875" xlink:href="#DejaVuSerif-101"/>
      <use x="400.976562" xlink:href="#DejaVuSerif-97"/>
      <use x="460.595703" xlink:href="#DejaVuSerif-108"/>
      <use x="492.578125" xlink:href="#DejaVuSerif-95"/>
      <use x="542.578125" xlink:href="#DejaVuSerif-51"/>
      <use x="606.201172" xlink:href="#DejaVuSerif-48"/>
      <use x="669.824219" xlink:href="#DejaVuSerif-110"/>
      <use x="734.228516" xlink:href="#DejaVuSerif-109"/>
      <use x="829.052734" xlink:href="#DejaVuSerif-95"/>
      <use x="879.052734" xlink:href="#DejaVuSerif-112"/>
      <use x="943.066406" xlink:href="#DejaVuSerif-114"/>
      <use x="990.869141" xlink:href="#DejaVuSerif-101"/>
      <use x="1050.048828" xlink:href="#DejaVuSerif-100"/>
      <use x="1114.0625" xlink:href="#DejaVuSerif-105"/>
      <use x="1146.044922" xlink:href="#DejaVuSerif-99"/>
      <use x="1202.050781" xlink:href="#DejaVuSerif-116"/>
      <use x="1242.236328" xlink:href="#DejaVuSerif-95"/>
      <use x="1292.236328" xlink:href="#DejaVuSerif-115"/>
      <use x="1343.554688" xlink:href="#DejaVuSerif-112"/>
      <use x="1407.568359" xlink:href="#DejaVuSerif-108"/>
      <use x="1439.550781" xlink:href="#DejaVuSerif-105"/>
      <use x="1471.533203" xlink:href="#DejaVuSerif-116"/>
      <use x="1511.71875" xlink:href="#DejaVuSerif-50"/>
      <use x="1575.341797" xlink:href="#DejaVuSerif-48"/>
      <use x="1638.964844" xlink:href="#DejaVuSerif-50"/>
      <use x="1702.587891" xlink:href="#DejaVuSerif-50"/>
      <use x="1766.210938" xlink:href="#DejaVuSerif-48"/>
      <use x="1829.833984" xlink:href="#DejaVuSerif-52"/>
      <use x="1893.457031" xlink:href="#DejaVuSerif-48"/>
      <use x="1957.080078" xlink:href="#DejaVuSerif-55"/>
      <use x="2020.703125" xlink:href="#DejaVuSerif-115"/>
      <use x="2072.021484" xlink:href="#DejaVuSerif-52"/>
      <use x="2135.644531" xlink:href="#DejaVuSerif-50"/>
      <use x="2199.267578" xlink:href="#DejaVuSerif-99"/>
      <use x="2255.273438" xlink:href="#DejaVuSerif-51"/>
      <use x="2318.896484" xlink:href="#DejaVuSerif-52"/>
      <use x="2382.519531" xlink:href="#DejaVuSerif-48"/>
      <use x="2446.142578" xlink:href="#DejaVuSerif-48"/>
      <use x="2509.765625" xlink:href="#DejaVuSerif-48"/>
      <use x="2573.388672" xlink:href="#DejaVuSerif-48"/>
      <use x="2637.011719" xlink:href="#DejaVuSerif-95"/>
      <use x="2687.011719" xlink:href="#DejaVuSerif-51"/>
      <use x="2750.634766" xlink:href="#DejaVuSerif-48"/>
      <use x="2814.257812" xlink:href="#DejaVuSerif-110"/>
      <use x="2878.662109" xlink:href="#DejaVuSerif-109"/>
     </g>
    </g>
    <g id="PathCollection_24">
     <path d="M 323.645312 224.206738 
L 327.828613 215.840137 
L 319.462012 215.840137 
z
" style="fill:none;stroke:#0000ff;"/>
    </g>
    <g id="text_22">
     <!-- train_split20220407s3c340000_90nm_predict_real_90nm -->
     <g transform="translate(341.645312 222.648437)scale(0.1 -0.1)">
      <use xlink:href="#DejaVuSerif-116"/>
      <use x="40.185547" xlink:href="#DejaVuSerif-114"/>
      <use x="87.988281" xlink:href="#DejaVuSerif-97"/>
      <use x="147.607422" xlink:href="#DejaVuSerif-105"/>
      <use x="179.589844" xlink:href="#DejaVuSerif-110"/>
      <use x="243.994141" xlink:href="#DejaVuSerif-95"/>
      <use x="293.994141" xlink:href="#DejaVuSerif-115"/>
      <use x="345.3125" xlink:href="#DejaVuSerif-112"/>
      <use x="409.326172" xlink:href="#DejaVuSerif-108"/>
      <use x="441.308594" xlink:href="#DejaVuSerif-105"/>
      <use x="473.291016" xlink:href="#DejaVuSerif-116"/>
      <use x="513.476562" xlink:href="#DejaVuSerif-50"/>
      <use x="577.099609" xlink:href="#DejaVuSerif-48"/>
      <use x="640.722656" xlink:href="#DejaVuSerif-50"/>
      <use x="704.345703" xlink:href="#DejaVuSerif-50"/>
      <use x="767.96875" xlink:href="#DejaVuSerif-48"/>
      <use x="831.591797" xlink:href="#DejaVuSerif-52"/>
      <use x="895.214844" xlink:href="#DejaVuSerif-48"/>
      <use x="958.837891" xlink:href="#DejaVuSerif-55"/>
      <use x="1022.460938" xlink:href="#DejaVuSerif-115"/>
      <use x="1073.779297" xlink:href="#DejaVuSerif-51"/>
      <use x="1137.402344" xlink:href="#DejaVuSerif-99"/>
      <use x="1193.408203" xlink:href="#DejaVuSerif-51"/>
      <use x="1257.03125" xlink:href="#DejaVuSerif-52"/>
      <use x="1320.654297" xlink:href="#DejaVuSerif-48"/>
      <use x="1384.277344" xlink:href="#DejaVuSerif-48"/>
      <use x="1447.900391" xlink:href="#DejaVuSerif-48"/>
      <use x="1511.523438" xlink:href="#DejaVuSerif-48"/>
      <use x="1575.146484" xlink:href="#DejaVuSerif-95"/>
      <use x="1625.146484" xlink:href="#DejaVuSerif-57"/>
      <use x="1688.769531" xlink:href="#DejaVuSerif-48"/>
      <use x="1752.392578" xlink:href="#DejaVuSerif-110"/>
      <use x="1816.796875" xlink:href="#DejaVuSerif-109"/>
      <use x="1911.621094" xlink:href="#DejaVuSerif-95"/>
      <use x="1961.621094" xlink:href="#DejaVuSerif-112"/>
      <use x="2025.634766" xlink:href="#DejaVuSerif-114"/>
      <use x="2073.4375" xlink:href="#DejaVuSerif-101"/>
      <use x="2132.617188" xlink:href="#DejaVuSerif-100"/>
      <use x="2196.630859" xlink:href="#DejaVuSerif-105"/>
      <use x="2228.613281" xlink:href="#DejaVuSerif-99"/>
      <use x="2284.619141" xlink:href="#DejaVuSerif-116"/>
      <use x="2324.804688" xlink:href="#DejaVuSerif-95"/>
      <use x="2374.804688" xlink:href="#DejaVuSerif-114"/>
      <use x="2422.607422" xlink:href="#DejaVuSerif-101"/>
      <use x="2481.787109" xlink:href="#DejaVuSerif-97"/>
      <use x="2541.40625" xlink:href="#DejaVuSerif-108"/>
      <use x="2573.388672" xlink:href="#DejaVuSerif-95"/>
      <use x="2623.388672" xlink:href="#DejaVuSerif-57"/>
      <use x="2687.011719" xlink:href="#DejaVuSerif-48"/>
      <use x="2750.634766" xlink:href="#DejaVuSerif-110"/>
      <use x="2815.039062" xlink:href="#DejaVuSerif-109"/>
     </g>
    </g>
    <g id="PathCollection_25">
     <g>
      <use style="fill:#ff00ff;stroke:#ff00ff;" x="323.645312" xlink:href="#m6ceb36a6c6" y="234.979687"/>
     </g>
    </g>
    <g id="text_23">
     <!-- train_real_90nm_predict_real_90nm -->
     <g transform="translate(341.645312 237.604687)scale(0.1 -0.1)">
      <use xlink:href="#DejaVuSerif-116"/>
      <use x="40.185547" xlink:href="#DejaVuSerif-114"/>
      <use x="87.988281" xlink:href="#DejaVuSerif-97"/>
      <use x="147.607422" xlink:href="#DejaVuSerif-105"/>
      <use x="179.589844" xlink:href="#DejaVuSerif-110"/>
      <use x="243.994141" xlink:href="#DejaVuSerif-95"/>
      <use x="293.994141" xlink:href="#DejaVuSerif-114"/>
      <use x="341.796875" xlink:href="#DejaVuSerif-101"/>
      <use x="400.976562" xlink:href="#DejaVuSerif-97"/>
      <use x="460.595703" xlink:href="#DejaVuSerif-108"/>
      <use x="492.578125" xlink:href="#DejaVuSerif-95"/>
      <use x="542.578125" xlink:href="#DejaVuSerif-57"/>
      <use x="606.201172" xlink:href="#DejaVuSerif-48"/>
      <use x="669.824219" xlink:href="#DejaVuSerif-110"/>
      <use x="734.228516" xlink:href="#DejaVuSerif-109"/>
      <use x="829.052734" xlink:href="#DejaVuSerif-95"/>
      <use x="879.052734" xlink:href="#DejaVuSerif-112"/>
      <use x="943.066406" xlink:href="#DejaVuSerif-114"/>
      <use x="990.869141" xlink:href="#DejaVuSerif-101"/>
      <use x="1050.048828" xlink:href="#DejaVuSerif-100"/>
      <use x="1114.0625" xlink:href="#DejaVuSerif-105"/>
      <use x="1146.044922" xlink:href="#DejaVuSerif-99"/>
      <use x="1202.050781" xlink:href="#DejaVuSerif-116"/>
      <use x="1242.236328" xlink:href="#DejaVuSerif-95"/>
      <use x="1292.236328" xlink:href="#DejaVuSerif-114"/>
      <use x="1340.039062" xlink:href="#DejaVuSerif-101"/>
      <use x="1399.21875" xlink:href="#DejaVuSerif-97"/>
      <use x="1458.837891" xlink:href="#DejaVuSerif-108"/>
      <use x="1490.820312" xlink:href="#DejaVuSerif-95"/>
      <use x="1540.820312" xlink:href="#DejaVuSerif-57"/>
      <use x="1604.443359" xlink:href="#DejaVuSerif-48"/>
      <use x="1668.066406" xlink:href="#DejaVuSerif-110"/>
      <use x="1732.470703" xlink:href="#DejaVuSerif-109"/>
     </g>
    </g>
    <g id="PathCollection_26">
     <g>
      <use style="fill:#ff0000;stroke:#ff0000;" x="323.645312" xlink:href="#m61e5b11c33" y="249.935937"/>
     </g>
    </g>
    <g id="text_24">
     <!-- train_link20220407s42c310000_90nm_predict_real_90nm -->
     <g transform="translate(341.645312 252.560937)scale(0.1 -0.1)">
      <use xlink:href="#DejaVuSerif-116"/>
      <use x="40.185547" xlink:href="#DejaVuSerif-114"/>
      <use x="87.988281" xlink:href="#DejaVuSerif-97"/>
      <use x="147.607422" xlink:href="#DejaVuSerif-105"/>
      <use x="179.589844" xlink:href="#DejaVuSerif-110"/>
      <use x="243.994141" xlink:href="#DejaVuSerif-95"/>
      <use x="293.994141" xlink:href="#DejaVuSerif-108"/>
      <use x="325.976562" xlink:href="#DejaVuSerif-105"/>
      <use x="357.958984" xlink:href="#DejaVuSerif-110"/>
      <use x="422.363281" xlink:href="#DejaVuSerif-107"/>
      <use x="482.958984" xlink:href="#DejaVuSerif-50"/>
      <use x="546.582031" xlink:href="#DejaVuSerif-48"/>
      <use x="610.205078" xlink:href="#DejaVuSerif-50"/>
      <use x="673.828125" xlink:href="#DejaVuSerif-50"/>
      <use x="737.451172" xlink:href="#DejaVuSerif-48"/>
      <use x="801.074219" xlink:href="#DejaVuSerif-52"/>
      <use x="864.697266" xlink:href="#DejaVuSerif-48"/>
      <use x="928.320312" xlink:href="#DejaVuSerif-55"/>
      <use x="991.943359" xlink:href="#DejaVuSerif-115"/>
      <use x="1043.261719" xlink:href="#DejaVuSerif-52"/>
      <use x="1106.884766" xlink:href="#DejaVuSerif-50"/>
      <use x="1170.507812" xlink:href="#DejaVuSerif-99"/>
      <use x="1226.513672" xlink:href="#DejaVuSerif-51"/>
      <use x="1290.136719" xlink:href="#DejaVuSerif-49"/>
      <use x="1353.759766" xlink:href="#DejaVuSerif-48"/>
      <use x="1417.382812" xlink:href="#DejaVuSerif-48"/>
      <use x="1481.005859" xlink:href="#DejaVuSerif-48"/>
      <use x="1544.628906" xlink:href="#DejaVuSerif-48"/>
      <use x="1608.251953" xlink:href="#DejaVuSerif-95"/>
      <use x="1658.251953" xlink:href="#DejaVuSerif-57"/>
      <use x="1721.875" xlink:href="#DejaVuSerif-48"/>
      <use x="1785.498047" xlink:href="#DejaVuSerif-110"/>
      <use x="1849.902344" xlink:href="#DejaVuSerif-109"/>
      <use x="1944.726562" xlink:href="#DejaVuSerif-95"/>
      <use x="1994.726562" xlink:href="#DejaVuSerif-112"/>
      <use x="2058.740234" xlink:href="#DejaVuSerif-114"/>
      <use x="2106.542969" xlink:href="#DejaVuSerif-101"/>
      <use x="2165.722656" xlink:href="#DejaVuSerif-100"/>
      <use x="2229.736328" xlink:href="#DejaVuSerif-105"/>
      <use x="2261.71875" xlink:href="#DejaVuSerif-99"/>
      <use x="2317.724609" xlink:href="#DejaVuSerif-116"/>
      <use x="2357.910156" xlink:href="#DejaVuSerif-95"/>
      <use x="2407.910156" xlink:href="#DejaVuSerif-114"/>
      <use x="2455.712891" xlink:href="#DejaVuSerif-101"/>
      <use x="2514.892578" xlink:href="#DejaVuSerif-97"/>
      <use x="2574.511719" xlink:href="#DejaVuSerif-108"/>
      <use x="2606.494141" xlink:href="#DejaVuSerif-95"/>
      <use x="2656.494141" xlink:href="#DejaVuSerif-57"/>
      <use x="2720.117188" xlink:href="#DejaVuSerif-48"/>
      <use x="2783.740234" xlink:href="#DejaVuSerif-110"/>
      <use x="2848.144531" xlink:href="#DejaVuSerif-109"/>
     </g>
    </g>
    <g id="PathCollection_27">
     <g>
      <use style="stroke:#000000;" x="323.645312" xlink:href="#m8d98051e94" y="264.892187"/>
     </g>
    </g>
    <g id="text_25">
     <!-- train_real_30nm_predict_real_30nm -->
     <g transform="translate(341.645312 267.517187)scale(0.1 -0.1)">
      <use xlink:href="#DejaVuSerif-116"/>
      <use x="40.185547" xlink:href="#DejaVuSerif-114"/>
      <use x="87.988281" xlink:href="#DejaVuSerif-97"/>
      <use x="147.607422" xlink:href="#DejaVuSerif-105"/>
      <use x="179.589844" xlink:href="#DejaVuSerif-110"/>
      <use x="243.994141" xlink:href="#DejaVuSerif-95"/>
      <use x="293.994141" xlink:href="#DejaVuSerif-114"/>
      <use x="341.796875" xlink:href="#DejaVuSerif-101"/>
      <use x="400.976562" xlink:href="#DejaVuSerif-97"/>
      <use x="460.595703" xlink:href="#DejaVuSerif-108"/>
      <use x="492.578125" xlink:href="#DejaVuSerif-95"/>
      <use x="542.578125" xlink:href="#DejaVuSerif-51"/>
      <use x="606.201172" xlink:href="#DejaVuSerif-48"/>
      <use x="669.824219" xlink:href="#DejaVuSerif-110"/>
      <use x="734.228516" xlink:href="#DejaVuSerif-109"/>
      <use x="829.052734" xlink:href="#DejaVuSerif-95"/>
      <use x="879.052734" xlink:href="#DejaVuSerif-112"/>
      <use x="943.066406" xlink:href="#DejaVuSerif-114"/>
      <use x="990.869141" xlink:href="#DejaVuSerif-101"/>
      <use x="1050.048828" xlink:href="#DejaVuSerif-100"/>
      <use x="1114.0625" xlink:href="#DejaVuSerif-105"/>
      <use x="1146.044922" xlink:href="#DejaVuSerif-99"/>
      <use x="1202.050781" xlink:href="#DejaVuSerif-116"/>
      <use x="1242.236328" xlink:href="#DejaVuSerif-95"/>
      <use x="1292.236328" xlink:href="#DejaVuSerif-114"/>
      <use x="1340.039062" xlink:href="#DejaVuSerif-101"/>
      <use x="1399.21875" xlink:href="#DejaVuSerif-97"/>
      <use x="1458.837891" xlink:href="#DejaVuSerif-108"/>
      <use x="1490.820312" xlink:href="#DejaVuSerif-95"/>
      <use x="1540.820312" xlink:href="#DejaVuSerif-51"/>
      <use x="1604.443359" xlink:href="#DejaVuSerif-48"/>
      <use x="1668.066406" xlink:href="#DejaVuSerif-110"/>
      <use x="1732.470703" xlink:href="#DejaVuSerif-109"/>
     </g>
    </g>
    <g id="PathCollection_28">
     <path d="M 323.645312 275.665137 
L 319.462012 284.031738 
L 327.828613 284.031738 
z
" style="fill:none;stroke:#008000;"/>
    </g>
    <g id="text_26">
     <!-- train_real_30nm_predict_split20220407s3c340000_30nm -->
     <g transform="translate(341.645312 282.473437)scale(0.1 -0.1)">
      <use xlink:href="#DejaVuSerif-116"/>
      <use x="40.185547" xlink:href="#DejaVuSerif-114"/>
      <use x="87.988281" xlink:href="#DejaVuSerif-97"/>
      <use x="147.607422" xlink:href="#DejaVuSerif-105"/>
      <use x="179.589844" xlink:href="#DejaVuSerif-110"/>
      <use x="243.994141" xlink:href="#DejaVuSerif-95"/>
      <use x="293.994141" xlink:href="#DejaVuSerif-114"/>
      <use x="341.796875" xlink:href="#DejaVuSerif-101"/>
      <use x="400.976562" xlink:href="#DejaVuSerif-97"/>
      <use x="460.595703" xlink:href="#DejaVuSerif-108"/>
      <use x="492.578125" xlink:href="#DejaVuSerif-95"/>
      <use x="542.578125" xlink:href="#DejaVuSerif-51"/>
      <use x="606.201172" xlink:href="#DejaVuSerif-48"/>
      <use x="669.824219" xlink:href="#DejaVuSerif-110"/>
      <use x="734.228516" xlink:href="#DejaVuSerif-109"/>
      <use x="829.052734" xlink:href="#DejaVuSerif-95"/>
      <use x="879.052734" xlink:href="#DejaVuSerif-112"/>
      <use x="943.066406" xlink:href="#DejaVuSerif-114"/>
      <use x="990.869141" xlink:href="#DejaVuSerif-101"/>
      <use x="1050.048828" xlink:href="#DejaVuSerif-100"/>
      <use x="1114.0625" xlink:href="#DejaVuSerif-105"/>
      <use x="1146.044922" xlink:href="#DejaVuSerif-99"/>
      <use x="1202.050781" xlink:href="#DejaVuSerif-116"/>
      <use x="1242.236328" xlink:href="#DejaVuSerif-95"/>
      <use x="1292.236328" xlink:href="#DejaVuSerif-115"/>
      <use x="1343.554688" xlink:href="#DejaVuSerif-112"/>
      <use x="1407.568359" xlink:href="#DejaVuSerif-108"/>
      <use x="1439.550781" xlink:href="#DejaVuSerif-105"/>
      <use x="1471.533203" xlink:href="#DejaVuSerif-116"/>
      <use x="1511.71875" xlink:href="#DejaVuSerif-50"/>
      <use x="1575.341797" xlink:href="#DejaVuSerif-48"/>
      <use x="1638.964844" xlink:href="#DejaVuSerif-50"/>
      <use x="1702.587891" xlink:href="#DejaVuSerif-50"/>
      <use x="1766.210938" xlink:href="#DejaVuSerif-48"/>
      <use x="1829.833984" xlink:href="#DejaVuSerif-52"/>
      <use x="1893.457031" xlink:href="#DejaVuSerif-48"/>
      <use x="1957.080078" xlink:href="#DejaVuSerif-55"/>
      <use x="2020.703125" xlink:href="#DejaVuSerif-115"/>
      <use x="2072.021484" xlink:href="#DejaVuSerif-51"/>
      <use x="2135.644531" xlink:href="#DejaVuSerif-99"/>
      <use x="2191.650391" xlink:href="#DejaVuSerif-51"/>
      <use x="2255.273438" xlink:href="#DejaVuSerif-52"/>
      <use x="2318.896484" xlink:href="#DejaVuSerif-48"/>
      <use x="2382.519531" xlink:href="#DejaVuSerif-48"/>
      <use x="2446.142578" xlink:href="#DejaVuSerif-48"/>
      <use x="2509.765625" xlink:href="#DejaVuSerif-48"/>
      <use x="2573.388672" xlink:href="#DejaVuSerif-95"/>
      <use x="2623.388672" xlink:href="#DejaVuSerif-51"/>
      <use x="2687.011719" xlink:href="#DejaVuSerif-48"/>
      <use x="2750.634766" xlink:href="#DejaVuSerif-110"/>
      <use x="2815.039062" xlink:href="#DejaVuSerif-109"/>
     </g>
    </g>
    <g id="PathCollection_29">
     <path d="M 323.645312 298.987988 
L 327.828613 290.621387 
L 319.462012 290.621387 
z
" style="fill:none;stroke:#ff0000;"/>
    </g>
    <g id="text_27">
     <!-- train_link20220407s13c330000_90nm_predict_real_90nm -->
     <g transform="translate(341.645312 297.429687)scale(0.1 -0.1)">
      <use xlink:href="#DejaVuSerif-116"/>
      <use x="40.185547" xlink:href="#DejaVuSerif-114"/>
      <use x="87.988281" xlink:href="#DejaVuSerif-97"/>
      <use x="147.607422" xlink:href="#DejaVuSerif-105"/>
      <use x="179.589844" xlink:href="#DejaVuSerif-110"/>
      <use x="243.994141" xlink:href="#DejaVuSerif-95"/>
      <use x="293.994141" xlink:href="#DejaVuSerif-108"/>
      <use x="325.976562" xlink:href="#DejaVuSerif-105"/>
      <use x="357.958984" xlink:href="#DejaVuSerif-110"/>
      <use x="422.363281" xlink:href="#DejaVuSerif-107"/>
      <use x="482.958984" xlink:href="#DejaVuSerif-50"/>
      <use x="546.582031" xlink:href="#DejaVuSerif-48"/>
      <use x="610.205078" xlink:href="#DejaVuSerif-50"/>
      <use x="673.828125" xlink:href="#DejaVuSerif-50"/>
      <use x="737.451172" xlink:href="#DejaVuSerif-48"/>
      <use x="801.074219" xlink:href="#DejaVuSerif-52"/>
      <use x="864.697266" xlink:href="#DejaVuSerif-48"/>
      <use x="928.320312" xlink:href="#DejaVuSerif-55"/>
      <use x="991.943359" xlink:href="#DejaVuSerif-115"/>
      <use x="1043.261719" xlink:href="#DejaVuSerif-49"/>
      <use x="1106.884766" xlink:href="#DejaVuSerif-51"/>
      <use x="1170.507812" xlink:href="#DejaVuSerif-99"/>
      <use x="1226.513672" xlink:href="#DejaVuSerif-51"/>
      <use x="1290.136719" xlink:href="#DejaVuSerif-51"/>
      <use x="1353.759766" xlink:href="#DejaVuSerif-48"/>
      <use x="1417.382812" xlink:href="#DejaVuSerif-48"/>
      <use x="1481.005859" xlink:href="#DejaVuSerif-48"/>
      <use x="1544.628906" xlink:href="#DejaVuSerif-48"/>
      <use x="1608.251953" xlink:href="#DejaVuSerif-95"/>
      <use x="1658.251953" xlink:href="#DejaVuSerif-57"/>
      <use x="1721.875" xlink:href="#DejaVuSerif-48"/>
      <use x="1785.498047" xlink:href="#DejaVuSerif-110"/>
      <use x="1849.902344" xlink:href="#DejaVuSerif-109"/>
      <use x="1944.726562" xlink:href="#DejaVuSerif-95"/>
      <use x="1994.726562" xlink:href="#DejaVuSerif-112"/>
      <use x="2058.740234" xlink:href="#DejaVuSerif-114"/>
      <use x="2106.542969" xlink:href="#DejaVuSerif-101"/>
      <use x="2165.722656" xlink:href="#DejaVuSerif-100"/>
      <use x="2229.736328" xlink:href="#DejaVuSerif-105"/>
      <use x="2261.71875" xlink:href="#DejaVuSerif-99"/>
      <use x="2317.724609" xlink:href="#DejaVuSerif-116"/>
      <use x="2357.910156" xlink:href="#DejaVuSerif-95"/>
      <use x="2407.910156" xlink:href="#DejaVuSerif-114"/>
      <use x="2455.712891" xlink:href="#DejaVuSerif-101"/>
      <use x="2514.892578" xlink:href="#DejaVuSerif-97"/>
      <use x="2574.511719" xlink:href="#DejaVuSerif-108"/>
      <use x="2606.494141" xlink:href="#DejaVuSerif-95"/>
      <use x="2656.494141" xlink:href="#DejaVuSerif-57"/>
      <use x="2720.117188" xlink:href="#DejaVuSerif-48"/>
      <use x="2783.740234" xlink:href="#DejaVuSerif-110"/>
      <use x="2848.144531" xlink:href="#DejaVuSerif-109"/>
     </g>
    </g>
    <g id="PathCollection_30">
     <path d="M 323.645312 305.577637 
L 319.462012 313.944238 
L 327.828613 313.944238 
z
" style="fill:none;stroke:#ffa500;"/>
    </g>
    <g id="text_28">
     <!-- train_real_30nm_predict_link20220407s13c330000_30nm -->
     <g transform="translate(341.645312 312.385937)scale(0.1 -0.1)">
      <use xlink:href="#DejaVuSerif-116"/>
      <use x="40.185547" xlink:href="#DejaVuSerif-114"/>
      <use x="87.988281" xlink:href="#DejaVuSerif-97"/>
      <use x="147.607422" xlink:href="#DejaVuSerif-105"/>
      <use x="179.589844" xlink:href="#DejaVuSerif-110"/>
      <use x="243.994141" xlink:href="#DejaVuSerif-95"/>
      <use x="293.994141" xlink:href="#DejaVuSerif-114"/>
      <use x="341.796875" xlink:href="#DejaVuSerif-101"/>
      <use x="400.976562" xlink:href="#DejaVuSerif-97"/>
      <use x="460.595703" xlink:href="#DejaVuSerif-108"/>
      <use x="492.578125" xlink:href="#DejaVuSerif-95"/>
      <use x="542.578125" xlink:href="#DejaVuSerif-51"/>
      <use x="606.201172" xlink:href="#DejaVuSerif-48"/>
      <use x="669.824219" xlink:href="#DejaVuSerif-110"/>
      <use x="734.228516" xlink:href="#DejaVuSerif-109"/>
      <use x="829.052734" xlink:href="#DejaVuSerif-95"/>
      <use x="879.052734" xlink:href="#DejaVuSerif-112"/>
      <use x="943.066406" xlink:href="#DejaVuSerif-114"/>
      <use x="990.869141" xlink:href="#DejaVuSerif-101"/>
      <use x="1050.048828" xlink:href="#DejaVuSerif-100"/>
      <use x="1114.0625" xlink:href="#DejaVuSerif-105"/>
      <use x="1146.044922" xlink:href="#DejaVuSerif-99"/>
      <use x="1202.050781" xlink:href="#DejaVuSerif-116"/>
      <use x="1242.236328" xlink:href="#DejaVuSerif-95"/>
      <use x="1292.236328" xlink:href="#DejaVuSerif-108"/>
      <use x="1324.21875" xlink:href="#DejaVuSerif-105"/>
      <use x="1356.201172" xlink:href="#DejaVuSerif-110"/>
      <use x="1420.605469" xlink:href="#DejaVuSerif-107"/>
      <use x="1481.201172" xlink:href="#DejaVuSerif-50"/>
      <use x="1544.824219" xlink:href="#DejaVuSerif-48"/>
      <use x="1608.447266" xlink:href="#DejaVuSerif-50"/>
      <use x="1672.070312" xlink:href="#DejaVuSerif-50"/>
      <use x="1735.693359" xlink:href="#DejaVuSerif-48"/>
      <use x="1799.316406" xlink:href="#DejaVuSerif-52"/>
      <use x="1862.939453" xlink:href="#DejaVuSerif-48"/>
      <use x="1926.5625" xlink:href="#DejaVuSerif-55"/>
      <use x="1990.185547" xlink:href="#DejaVuSerif-115"/>
      <use x="2041.503906" xlink:href="#DejaVuSerif-49"/>
      <use x="2105.126953" xlink:href="#DejaVuSerif-51"/>
      <use x="2168.75" xlink:href="#DejaVuSerif-99"/>
      <use x="2224.755859" xlink:href="#DejaVuSerif-51"/>
      <use x="2288.378906" xlink:href="#DejaVuSerif-51"/>
      <use x="2352.001953" xlink:href="#DejaVuSerif-48"/>
      <use x="2415.625" xlink:href="#DejaVuSerif-48"/>
      <use x="2479.248047" xlink:href="#DejaVuSerif-48"/>
      <use x="2542.871094" xlink:href="#DejaVuSerif-48"/>
      <use x="2606.494141" xlink:href="#DejaVuSerif-95"/>
      <use x="2656.494141" xlink:href="#DejaVuSerif-51"/>
      <use x="2720.117188" xlink:href="#DejaVuSerif-48"/>
      <use x="2783.740234" xlink:href="#DejaVuSerif-110"/>
      <use x="2848.144531" xlink:href="#DejaVuSerif-109"/>
     </g>
    </g>
   </g>
  </g>
 </g>
 <defs>
  <clipPath id="p57c6446f8a">
   <rect height="554.4" width="558" x="90" y="86.4"/>
  </clipPath>
 </defs>
</svg>
